<?xml version="1.0" ?><!DOCTYPE svg  PUBLIC '-//W3C//DTD SVG 1.1 Tiny//EN'  'http://www.w3.org/Graphics/SVG/1.1/DTD/svg11-tiny.dtd'><svg baseProfile="tiny" height="32px" version="1.1" viewBox="0 0 32 32" width="32px" xml:space="preserve" xmlns="http://www.w3.org/2000/svg" xmlns:xlink="http://www.w3.org/1999/xlink"><g id="Guides__x26__Forms"/><g id="Icons"><g><path d="M24,8h-2V6h-2v2h-8V6h-2v2H8c-1.105,0-2,0.895-2,2v14c0,1.105,0.895,2,2,2h16c1.105,0,2-0.895,2-2V10    C26,8.895,25.105,8,24,8z M24,24H8V14h16V24z M24,12H8v-2h16V12z"/><rect height="2" width="2" x="16" y="16"/><rect height="2" width="2" x="20" y="16"/><rect height="2" width="2" x="16" y="20"/><rect height="2" width="2" x="12" y="20"/></g></g></svg>