<?xml version="1.0" ?><!DOCTYPE svg  PUBLIC '-//W3C//DTD SVG 1.1//EN'  'http://www.w3.org/Graphics/SVG/1.1/DTD/svg11.dtd'><svg height="100%" style="fill-rule:evenodd;clip-rule:evenodd;stroke-linejoin:round;stroke-miterlimit:1.41421;" version="1.1" viewBox="0 0 48 48" width="100%" xml:space="preserve" xmlns="http://www.w3.org/2000/svg" xmlns:serif="http://www.serif.com/" xmlns:xlink="http://www.w3.org/1999/xlink"><g id="global_settings"><g id="window"><path d="M3.435,35.705L3.435,12.776C3.435,11.106 4.79,9.75 6.46,9.75L41.11,9.75C42.778,9.75 44.138,11.104 44.138,12.776L44.138,35.705C44.138,37.376 42.782,38.731 41.11,38.731L6.46,38.731C4.79,38.731 3.435,37.376 3.435,35.705ZM42.224,35.705L42.224,12.776C42.224,12.165 41.725,11.666 41.11,11.666L6.46,11.666C5.849,11.666 5.35,12.163 5.35,12.776L5.35,35.705C5.35,36.317 5.849,36.816 6.46,36.816L41.11,36.816C41.724,36.816 42.224,36.317 42.224,35.705Z" id="window1"/><path d="M6.796,13.589C6.796,13.082 7.209,12.67 7.716,12.67C8.223,12.67 8.634,13.082 8.634,13.589C8.634,14.093 8.223,14.506 7.716,14.506C7.209,14.506 6.796,14.093 6.796,13.589ZM9.398,13.589C9.398,13.082 9.809,12.67 10.315,12.67C10.822,12.67 11.234,13.082 11.234,13.589C11.234,14.093 10.822,14.506 10.315,14.506C9.809,14.506 9.398,14.093 9.398,13.589ZM11.996,13.589C11.996,13.082 12.408,12.67 12.913,12.67C13.419,12.67 13.832,13.082 13.832,13.589C13.832,14.093 13.419,14.506 12.913,14.506C12.408,14.506 11.996,14.093 11.996,13.589Z" id="window-actions"/></g><path d="M8.344,24.572L8.344,23.414L9.505,23.414L9.505,24.572L8.344,24.572ZM10.328,24.572L10.328,23.414L11.485,23.414L11.485,24.572L10.328,24.572ZM12.311,24.572L12.311,23.414L13.469,23.414L13.469,24.572L12.311,24.572ZM14.294,24.572L14.294,23.414L15.454,23.414L15.454,24.572L14.294,24.572ZM16.277,24.572L16.277,23.414L17.438,23.414L17.438,24.572L16.277,24.572ZM18.261,24.572L18.261,23.414L19.42,23.414L19.42,24.572L18.261,24.572ZM20.246,24.572L20.246,23.414L21.404,23.414L21.404,24.572L20.246,24.572ZM8.344,22.722L8.344,21.563L9.505,21.563L9.505,22.722L8.344,22.722ZM10.328,22.722L10.328,21.563L11.485,21.563L11.485,22.722L10.328,22.722ZM12.311,22.722L12.311,21.563L13.469,21.563L13.469,22.722L12.311,22.722ZM14.294,22.722L14.294,21.563L15.454,21.563L15.454,22.722L14.294,22.722ZM16.277,22.722L16.277,21.563L17.438,21.563L17.438,22.722L16.277,22.722ZM18.261,22.722L18.261,21.563L19.42,21.563L19.42,22.722L18.261,22.722ZM20.246,22.722L20.246,21.563L21.404,21.563L21.404,22.722L20.246,22.722Z" id="grid"/><path d="M8.36,33.86C8.36,33.568 8.598,33.328 8.891,33.328L12.184,33.328C12.475,33.328 12.715,33.568 12.715,33.86C12.715,34.153 12.475,34.392 12.184,34.392L8.891,34.392C8.598,34.392 8.36,34.153 8.36,33.86ZM8.344,31.933C8.344,31.64 8.582,31.4 8.877,31.4L13.545,31.4C13.836,31.4 14.077,31.64 14.077,31.933C14.077,32.226 13.836,32.464 13.545,32.464L8.877,32.464C8.582,32.464 8.344,32.226 8.344,31.933ZM8.36,29.551C8.36,29.26 8.598,29.019 8.891,29.019L12.184,29.019C12.475,29.019 12.715,29.26 12.715,29.551C12.715,29.845 12.475,30.083 12.184,30.083L8.891,30.083C8.598,30.083 8.36,29.845 8.36,29.551ZM8.344,27.623C8.344,27.332 8.582,27.091 8.877,27.091L13.545,27.091C13.836,27.091 14.077,27.332 14.077,27.623C14.077,27.916 13.836,28.155 13.545,28.155L8.877,28.155C8.582,28.155 8.344,27.916 8.344,27.623Z" id="h2"/><path d="M8.344,17.175C8.344,16.883 8.582,16.643 8.877,16.643L23.229,16.643C23.521,16.643 23.761,16.883 23.761,17.175C23.761,17.468 23.521,17.706 23.229,17.706L8.877,17.706C8.582,17.706 8.344,17.468 8.344,17.175ZM8.391,19.103C8.391,18.811 8.629,18.57 8.923,18.57L19.042,18.57C19.333,18.57 19.574,18.811 19.574,19.103C19.574,19.396 19.333,19.635 19.042,19.635L8.923,19.635C8.629,19.635 8.391,19.396 8.391,19.103Z" id="h1"/><path d="M32.199,32.801C31.368,32.781 30.567,32.606 29.8,32.29C29.784,32.284 29.769,32.279 29.755,32.273C29.141,32.005 28.609,31.67 28.132,31.27C27.969,31.135 27.811,30.987 27.662,30.832C27.651,30.823 27.642,30.813 27.632,30.8C26.502,29.627 25.806,28.027 25.806,26.265C25.806,24.505 26.502,22.907 27.632,21.735C27.642,21.723 27.651,21.714 27.662,21.703C27.673,21.692 27.685,21.68 27.7,21.667C28.286,21.077 29.033,20.571 29.796,20.246C29.803,20.243 29.807,20.241 29.813,20.239C30.612,19.905 31.457,19.726 32.344,19.726C33.669,19.726 34.906,20.124 35.978,20.839C35.984,20.841 35.989,20.845 35.995,20.849C36.131,20.939 36.265,21.037 36.425,21.171C36.453,21.188 36.478,21.21 36.506,21.233C36.619,21.322 36.727,21.42 36.855,21.552C36.895,21.582 36.929,21.616 36.974,21.663C36.991,21.676 37.005,21.69 37.021,21.703C37.029,21.714 37.04,21.725 37.05,21.739C38.178,22.912 38.876,24.507 38.876,26.265C38.876,28.027 38.178,29.627 37.046,30.8C37.036,30.813 37.027,30.823 37.019,30.832C36.629,31.232 36.189,31.581 35.69,31.873L35.522,31.976C34.472,32.573 33.169,32.852 32.199,32.801ZM32.412,31.734C32.699,31.683 33.13,31.295 33.514,30.325C33.138,30.294 32.746,30.277 32.344,30.277C31.938,30.277 31.544,30.294 31.165,30.325C31.55,31.3 31.979,31.681 32.264,31.734C32.282,31.738 32.297,31.738 32.314,31.736L32.371,31.736C32.384,31.738 32.398,31.738 32.412,31.734ZM34.336,31.349C34.531,31.285 34.716,31.2 34.882,31.106C34.975,31.068 35.063,31.02 35.067,30.998C35.249,30.905 35.419,30.792 35.582,30.672L35.576,30.67L35.37,30.614C35.124,30.557 34.867,30.505 34.599,30.46C34.568,30.544 34.537,30.628 34.506,30.708C34.406,30.962 34.297,31.198 34.176,31.412C34.269,31.392 34.356,31.36 34.336,31.349ZM30.175,30.708C30.141,30.628 30.112,30.544 30.079,30.46C29.811,30.505 29.554,30.557 29.312,30.614L29.1,30.67L29.096,30.672C29.249,30.785 29.409,30.891 29.581,30.981C29.606,31.012 29.704,31.068 29.809,31.113C29.948,31.192 30.114,31.27 30.288,31.328C30.35,31.369 30.42,31.396 30.496,31.41C30.379,31.196 30.271,30.96 30.175,30.708ZM29.784,29.43C29.599,28.638 29.484,27.744 29.454,26.796L26.894,26.796C27.005,27.953 27.475,29.004 28.194,29.836C28.672,29.67 29.207,29.534 29.784,29.43ZM37.787,26.796L35.227,26.796C35.197,27.742 35.08,28.638 34.897,29.43C35.474,29.532 36.008,29.67 36.484,29.836C37.201,29.004 37.674,27.953 37.787,26.796ZM32.344,29.213C32.856,29.213 33.356,29.238 33.837,29.285C34.014,28.557 34.131,27.713 34.163,26.796L30.517,26.796C30.549,27.713 30.666,28.557 30.841,29.285C31.324,29.238 31.826,29.213 32.344,29.213ZM29.784,23.105C29.207,23.003 28.67,22.867 28.194,22.701C27.475,23.531 27.005,24.58 26.896,25.731L29.454,25.731C29.486,24.788 29.6,23.897 29.784,23.105ZM33.835,23.25C33.354,23.297 32.855,23.321 32.344,23.321C31.829,23.321 31.326,23.297 30.843,23.25C30.666,23.976 30.551,24.818 30.517,25.731L34.163,25.731C34.129,24.818 34.012,23.976 33.835,23.25ZM36.486,22.701C36.008,22.867 35.471,23.003 34.895,23.108C35.08,23.897 35.195,24.788 35.227,25.731L37.785,25.731C37.674,24.58 37.201,23.533 36.486,22.701ZM33.51,22.211C33.094,21.158 32.624,20.799 32.342,20.799C32.047,20.799 31.579,21.169 31.169,22.211C31.546,22.242 31.94,22.256 32.344,22.256C32.743,22.256 33.136,22.242 33.51,22.211ZM35.37,21.922L35.586,21.867C35.421,21.743 35.247,21.631 35.071,21.542C34.991,21.477 34.901,21.429 34.878,21.427C34.691,21.325 34.494,21.235 34.299,21.169C34.227,21.126 34.148,21.097 34.17,21.118C34.293,21.339 34.404,21.579 34.506,21.833C34.535,21.914 34.568,21.997 34.597,22.08C34.867,22.035 35.124,21.982 35.37,21.922ZM30.175,21.833C30.273,21.579 30.383,21.339 30.504,21.12C30.508,21.107 30.418,21.139 30.334,21.188C30.16,21.243 29.981,21.327 29.811,21.422C29.769,21.433 29.669,21.489 29.579,21.556C29.413,21.641 29.249,21.75 29.092,21.867L29.312,21.922C29.554,21.982 29.813,22.035 30.081,22.08C30.112,21.997 30.142,21.914 30.175,21.833Z" id="global"/></g></svg>