<?xml version="1.0" ?><!DOCTYPE svg  PUBLIC '-//W3C//DTD SVG 1.1//EN'  'http://www.w3.org/Graphics/SVG/1.1/DTD/svg11.dtd'><svg height="100%" style="fill-rule:evenodd;clip-rule:evenodd;stroke-linejoin:round;stroke-miterlimit:1.41421;" version="1.1" viewBox="0 0 48 48" width="100%" xml:space="preserve" xmlns="http://www.w3.org/2000/svg" xmlns:serif="http://www.serif.com/" xmlns:xlink="http://www.w3.org/1999/xlink"><g id="flow_options"><g id="window"><path d="M3.411,35.237L3.411,12.308C3.411,10.637 4.767,9.282 6.437,9.282L41.087,9.282C42.755,9.282 44.115,10.635 44.115,12.308L44.115,35.237C44.115,36.907 42.757,38.263 41.087,38.263L6.437,38.263C4.767,38.263 3.411,36.907 3.411,35.237ZM23.762,36.347L23.762,11.197L6.437,11.197C5.824,11.197 5.326,11.696 5.326,12.308L5.326,35.237C5.326,35.85 5.824,36.347 6.437,36.347L23.762,36.347ZM39.318,33.501L39.318,14.038L38.254,14.038L38.254,33.501L39.318,33.501ZM36.703,29.904L36.703,17.639L35.639,17.639L35.639,29.904L36.703,29.904ZM34.087,26.795L34.087,20.743L33.024,20.743L33.024,26.795L34.087,26.795ZM31.473,24.729L31.473,22.813L30.409,22.813L30.409,24.729L31.473,24.729ZM28.857,24.154L28.857,23.384L27.793,23.384L27.793,24.154L28.857,24.154Z" id="window1"/><path d="M6.773,13.121C6.773,12.615 7.186,12.201 7.693,12.201C8.199,12.201 8.61,12.615 8.61,13.121C8.61,13.625 8.199,14.038 7.693,14.038C7.186,14.038 6.773,13.625 6.773,13.121ZM9.373,13.121C9.373,12.615 9.785,12.201 10.29,12.201C10.797,12.201 11.21,12.615 11.21,13.121C11.21,13.625 10.797,14.038 10.29,14.038C9.785,14.038 9.373,13.625 9.373,13.121ZM11.972,13.121C11.972,12.615 12.385,12.201 12.889,12.201C13.396,12.201 13.808,12.615 13.808,13.121C13.808,13.625 13.396,14.038 12.889,14.038C12.385,14.038 11.972,13.625 11.972,13.121Z" id="window-actions"/></g><path d="M7.756,32.344C7.756,32.053 7.994,31.813 8.288,31.813L11.58,31.813C11.872,31.813 12.112,32.053 12.112,32.344C12.112,32.638 11.872,32.877 11.58,32.877L8.288,32.877C7.994,32.877 7.756,32.638 7.756,32.344ZM7.742,30.417C7.742,30.125 7.98,29.885 8.273,29.885L12.942,29.885C13.234,29.885 13.474,30.125 13.474,30.417C13.474,30.711 13.234,30.949 12.942,30.949L8.273,30.949C7.98,30.949 7.742,30.711 7.742,30.417Z" id="option-lines"/><path d="M16.438,30.188L16.438,27.252L5.305,27.252L5.305,25.976L16.438,25.976L16.438,21.56L5.305,21.56L5.305,20.284L16.438,20.284L16.438,17.352L23.218,23.767L16.438,30.188ZM17.503,27.716L21.671,23.769L17.503,19.824L17.503,27.716Z" id="flow"/></g></svg>