<?xml version="1.0" ?><!DOCTYPE svg  PUBLIC '-//W3C//DTD SVG 1.1//EN'  'http://www.w3.org/Graphics/SVG/1.1/DTD/svg11.dtd'><svg height="100%" style="fill-rule:evenodd;clip-rule:evenodd;stroke-linejoin:round;stroke-miterlimit:1.41421;" version="1.1" viewBox="0 0 48 48" width="100%" xml:space="preserve" xmlns="http://www.w3.org/2000/svg" xmlns:serif="http://www.serif.com/" xmlns:xlink="http://www.w3.org/1999/xlink"><g id="settings_visual_options"><path d="M3.411,35.207L3.411,12.278C3.411,10.608 4.767,9.252 6.437,9.252L41.087,9.252C42.755,9.252 44.115,10.606 44.115,12.278L44.115,35.207C44.115,36.877 42.757,38.233 41.087,38.233L6.437,38.233C4.767,38.233 3.411,36.877 3.411,35.207ZM42.199,35.207L42.199,12.278C42.199,11.668 41.702,11.168 41.087,11.168L6.437,11.168C5.824,11.168 5.326,11.666 5.326,12.278L5.326,35.207C5.326,35.82 5.824,36.318 6.437,36.318L41.087,36.318C41.7,36.318 42.199,35.82 42.199,35.207Z"/><path d="M6.773,13.092C6.773,12.585 7.186,12.172 7.693,12.172C8.199,12.172 8.61,12.585 8.61,13.092C8.61,13.595 8.199,14.009 7.693,14.009C7.186,14.009 6.773,13.595 6.773,13.092ZM9.373,13.092C9.373,12.585 9.785,12.172 10.29,12.172C10.797,12.172 11.21,12.585 11.21,13.092C11.21,13.595 10.797,14.009 10.29,14.009C9.785,14.009 9.373,13.595 9.373,13.092ZM11.972,13.092C11.972,12.585 12.385,12.172 12.889,12.172C13.396,12.172 13.808,12.585 13.808,13.092C13.808,13.595 13.396,14.009 12.889,14.009C12.385,14.009 11.972,13.595 11.972,13.092Z"/><g id="Group_88"><path d="M7.561,33.149C7.561,32.858 7.799,32.618 8.093,32.618L39.433,32.618C39.725,32.618 39.965,32.858 39.965,33.149C39.965,33.443 39.725,33.681 39.433,33.681L8.093,33.681C7.799,33.681 7.561,33.443 7.561,33.149Z"/><path d="M7.45,32.888L7.45,33.414C7.45,33.991 7.92,34.461 8.497,34.461L16.615,34.461C17.192,34.461 17.662,33.991 17.662,33.414L17.662,32.888C17.662,32.312 17.192,31.841 16.615,31.841L8.497,31.841C7.92,31.841 7.45,32.312 7.45,32.888Z"/></g><g id="Group_89"><path d="M7.561,28.302C7.561,28.01 7.799,27.77 8.093,27.77L39.433,27.77C39.725,27.77 39.965,28.01 39.965,28.302C39.965,28.595 39.725,28.833 39.433,28.833L8.093,28.833C7.799,28.833 7.561,28.595 7.561,28.302Z"/><path d="M7.448,28.04L7.448,28.566C7.448,29.143 7.916,29.613 8.493,29.613L12.763,29.613C13.34,29.613 13.808,29.143 13.808,28.566L13.808,28.04C13.808,27.464 13.34,26.993 12.763,26.993L8.493,26.993C7.916,26.993 7.448,27.464 7.448,28.04Z"/></g><g id="Group_90"><path d="M7.563,23.454C7.563,23.163 7.801,22.923 8.095,22.923L39.435,22.923C39.727,22.923 39.967,23.163 39.967,23.454C39.967,23.748 39.727,23.987 39.435,23.987L8.095,23.987C7.801,23.987 7.563,23.748 7.563,23.454Z"/><path d="M7.449,23.193L7.449,23.719C7.449,24.296 7.919,24.766 8.496,24.766L31.144,24.766C31.721,24.766 32.191,24.296 32.191,23.719L32.191,23.193C32.191,22.617 31.721,22.146 31.144,22.146L8.496,22.146C7.919,22.146 7.449,22.617 7.449,23.193Z"/></g><path d="M7.563,19.892L7.563,18.735L8.722,18.735L8.722,19.892L7.563,19.892ZM9.546,19.892L9.546,18.735L10.704,18.735L10.704,19.892L9.546,19.892ZM11.529,19.892L11.529,18.735L12.686,18.735L12.686,19.892L11.529,19.892ZM13.513,19.892L13.513,18.735L14.672,18.735L14.672,19.892L13.513,19.892ZM15.496,19.892L15.496,18.735L16.656,18.735L16.656,19.892L15.496,19.892ZM17.479,19.892L17.479,18.735L18.639,18.735L18.639,19.892L17.479,19.892ZM19.464,19.892L19.464,18.735L20.622,18.735L20.622,19.892L19.464,19.892ZM7.563,18.043L7.563,16.883L8.722,16.883L8.722,18.043L7.563,18.043ZM9.546,18.043L9.546,16.883L10.704,16.883L10.704,18.043L9.546,18.043ZM11.529,18.043L11.529,16.883L12.686,16.883L12.686,18.043L11.529,18.043ZM13.513,18.043L13.513,16.883L14.672,16.883L14.672,18.043L13.513,18.043ZM15.496,18.043L15.496,16.883L16.656,16.883L16.656,18.043L15.496,18.043ZM17.479,18.043L17.479,16.883L18.639,16.883L18.639,18.043L17.479,18.043ZM19.464,18.043L19.464,16.883L20.622,16.883L20.622,18.043L19.464,18.043Z" id="Group_92"/><path d="M28.384,19.96L28.384,16.817L31.527,16.817L31.527,19.96L28.384,19.96ZM32.602,19.96L32.602,16.817L35.745,16.817L35.745,19.96L32.602,19.96ZM36.82,19.96L36.82,16.817L39.963,16.817L39.963,19.96L36.82,19.96Z"/></g></svg>