<?xml version="1.0" ?><!DOCTYPE svg  PUBLIC '-//W3C//DTD SVG 1.1//EN'  'http://www.w3.org/Graphics/SVG/1.1/DTD/svg11.dtd'><svg height="100%" style="fill-rule:evenodd;clip-rule:evenodd;stroke-linejoin:round;stroke-miterlimit:1.41421;" version="1.1" viewBox="0 0 48 48" width="100%" xml:space="preserve" xmlns="http://www.w3.org/2000/svg" xmlns:serif="http://www.serif.com/" xmlns:xlink="http://www.w3.org/1999/xlink"><g id="options_graph_alt"><path d="M12.513,32.145L11.005,30.964L17.838,22.235L24.167,28.24L29.433,26.244L36.225,19.148L37.61,20.473L30.516,27.881L23.724,30.46L18.048,25.076L12.513,32.145Z"/><path d="M3.435,35.198L3.435,12.269C3.435,10.599 4.79,9.244 6.46,9.244L41.11,9.244C42.778,9.244 44.138,10.597 44.138,12.269L44.138,35.198C44.138,36.869 42.782,38.224 41.11,38.224L6.46,38.224C4.79,38.224 3.435,36.869 3.435,35.198ZM42.224,35.198L42.224,12.269C42.224,11.659 41.725,11.159 41.11,11.159L6.46,11.159C5.849,11.159 5.35,11.657 5.35,12.269L5.35,35.198C5.35,35.812 5.849,36.31 6.46,36.31L41.11,36.31C41.724,36.31 42.224,35.812 42.224,35.198Z"/><path d="M6.796,13.083C6.796,12.577 7.209,12.164 7.716,12.164C8.223,12.164 8.634,12.577 8.634,13.083C8.634,13.588 8.223,14 7.716,14C7.209,14 6.796,13.588 6.796,13.083ZM9.398,13.083C9.398,12.577 9.809,12.164 10.315,12.164C10.822,12.164 11.234,12.577 11.234,13.083C11.234,13.588 10.822,14 10.315,14C9.809,14 9.398,13.588 9.398,13.083ZM11.996,13.083C11.996,12.577 12.408,12.164 12.913,12.164C13.419,12.164 13.832,12.577 13.832,13.083C13.832,13.588 13.419,14 12.913,14C12.408,14 11.996,13.588 11.996,13.083Z"/><path d="M11.91,29.958C12.789,29.958 13.506,30.675 13.506,31.554C13.506,32.433 12.789,33.15 11.91,33.15C11.031,33.15 10.314,32.433 10.314,31.554C10.314,30.675 11.031,29.958 11.91,29.958Z"/><path d="M17.943,22.059C18.822,22.059 19.539,22.776 19.539,23.655C19.539,24.534 18.822,25.251 17.943,25.251C17.064,25.251 16.347,24.534 16.347,23.655C16.347,22.776 17.064,22.059 17.943,22.059Z"/><path d="M23.914,27.483C24.793,27.483 25.51,28.2 25.51,29.079C25.51,29.958 24.793,30.675 23.914,30.675C23.035,30.675 22.318,29.958 22.318,29.079C22.318,28.2 23.035,27.483 23.914,27.483Z"/><path d="M36.918,18.214C37.797,18.214 38.514,18.931 38.514,19.81C38.514,20.689 37.797,21.406 36.918,21.406C36.039,21.406 35.322,20.689 35.322,19.81C35.322,18.931 36.039,18.214 36.918,18.214Z"/><path d="M29.96,25.387C30.838,25.387 31.556,26.104 31.556,26.983C31.556,27.862 30.838,28.579 29.96,28.579C29.081,28.579 28.364,27.862 28.364,26.983C28.364,26.104 29.081,25.387 29.96,25.387Z"/><path d="M17.124,33.843L17.264,28.732C17.272,28.438 17.516,28.207 17.81,28.215C18.103,28.221 18.334,28.466 18.327,28.759L18.187,33.871C18.18,34.164 17.935,34.396 17.641,34.388C17.348,34.382 17.115,34.137 17.124,33.843ZM36.11,33.73L36.25,24.986C36.254,24.695 36.497,24.459 36.791,24.465C37.082,24.469 37.319,24.712 37.313,25.006L37.172,33.75C37.166,34.041 36.925,34.277 36.632,34.271C36.339,34.267 36.103,34.024 36.11,33.73ZM11.079,27.142L11.22,16.807C11.221,16.513 11.464,16.279 11.757,16.283C12.051,16.286 12.285,16.528 12.281,16.821L12.141,27.157C12.139,27.45 11.896,27.685 11.602,27.68C11.309,27.678 11.075,27.436 11.079,27.142ZM23.17,24.172L23.31,16.711C23.315,16.417 23.557,16.183 23.851,16.189C24.144,16.194 24.377,16.436 24.372,16.731L24.231,24.19C24.228,24.484 23.985,24.719 23.691,24.712C23.398,24.707 23.164,24.465 23.17,24.172ZM29.216,22.927L29.356,16.671C29.362,16.376 29.605,16.143 29.899,16.151C30.192,16.158 30.426,16.4 30.418,16.694L30.276,22.951C30.271,23.244 30.028,23.478 29.735,23.47C29.44,23.463 29.207,23.22 29.216,22.927Z"/><path d="M17.124,16.149L18.282,16.149L18.282,17.309L17.124,17.309L17.124,16.149ZM17.124,18.132L18.282,18.132L18.282,19.293L17.124,19.293L17.124,18.132ZM17.124,20.118L18.282,20.118L18.282,21.275L17.124,21.275L17.124,20.118Z" id="Group_26"/><path d="M29.263,29.264L30.42,29.264L30.42,30.424L29.263,30.424L29.263,29.264ZM29.263,31.247L30.42,31.247L30.42,32.404L29.263,32.404L29.263,31.247ZM29.263,33.231L30.42,33.231L30.42,34.388L29.263,34.388L29.263,33.231Z" id="Group_28"/></g></svg>