<?xml version="1.0" ?><!DOCTYPE svg  PUBLIC '-//W3C//DTD SVG 1.1//EN'  'http://www.w3.org/Graphics/SVG/1.1/DTD/svg11.dtd'><svg height="100%" style="fill-rule:evenodd;clip-rule:evenodd;stroke-linejoin:round;stroke-miterlimit:1.41421;" version="1.1" viewBox="0 0 48 48" width="100%" xml:space="preserve" xmlns="http://www.w3.org/2000/svg" xmlns:serif="http://www.serif.com/" xmlns:xlink="http://www.w3.org/1999/xlink"><g id="settings_controller"><path d="M6.913,13.595C6.913,13.089 7.327,12.676 7.833,12.676C8.339,12.676 8.75,13.089 8.75,13.595C8.75,14.1 8.339,14.512 7.833,14.512C7.327,14.512 6.913,14.1 6.913,13.595ZM9.514,13.595C9.514,13.089 9.924,12.676 10.431,12.676C10.938,12.676 11.35,13.089 11.35,13.595C11.35,14.1 10.938,14.512 10.431,14.512C9.924,14.512 9.514,14.1 9.514,13.595ZM12.113,13.595C12.113,13.089 12.525,12.676 13.03,12.676C13.535,12.676 13.949,13.089 13.949,13.595C13.949,14.1 13.535,14.512 13.03,14.512C12.525,14.512 12.113,14.1 12.113,13.595Z"/><path d="M31.621,28.366L31.621,27.206L32.781,27.206L32.781,28.366L31.621,28.366ZM27.92,24.86L27.92,23.701L29.081,23.701L29.081,24.86L27.92,24.86ZM31.621,24.86L31.621,23.701L32.781,23.701L32.781,24.86L31.621,24.86ZM35.42,24.86L35.42,23.703L36.579,23.703L36.579,24.86L35.42,24.86ZM31.621,21.356L31.621,20.197L32.781,20.197L32.781,21.356L31.621,21.356Z" id="Group_78"/><path d="M26.593,24.282C26.593,21.167 29.132,18.626 32.249,18.626C35.364,18.626 37.905,21.167 37.905,24.282C37.905,27.4 35.364,29.938 32.249,29.938C29.132,29.938 26.593,27.4 26.593,24.282ZM36.862,24.282C36.862,21.744 34.788,19.669 32.249,19.669C29.708,19.669 27.635,21.744 27.635,24.282C27.635,26.823 29.708,28.895 32.249,28.895C34.788,28.895 36.862,26.823 36.862,24.282Z"/><path d="M30.051,24.282C30.051,23.069 31.034,22.084 32.249,22.084C33.462,22.084 34.447,23.069 34.447,24.282C34.447,25.498 33.462,26.48 32.249,26.48C31.034,26.48 30.051,25.498 30.051,24.282ZM33.405,24.282C33.405,23.646 32.885,23.126 32.249,23.126C31.61,23.126 31.093,23.646 31.093,24.282C31.093,24.921 31.61,25.438 32.249,25.438C32.885,25.438 33.405,24.921 33.405,24.282Z"/><path d="M3.552,35.712L3.552,12.783C3.552,11.113 4.907,9.757 6.578,9.757L41.227,9.757C42.895,9.757 44.255,11.11 44.255,12.783L44.255,35.712C44.255,37.382 42.897,38.738 41.227,38.738L6.578,38.738C4.907,38.738 3.552,37.382 3.552,35.712ZM42.34,35.712L42.34,12.783C42.34,12.172 41.841,11.671 41.227,11.671L6.578,11.671C5.965,11.671 5.466,12.17 5.466,12.783L5.466,23.999L23.833,23.999L23.833,25.063L5.466,25.063L5.466,35.712C5.466,36.324 5.965,36.822 6.578,36.822L41.227,36.822C41.839,36.822 42.34,36.324 42.34,35.712Z"/><path d="M7.778,27.865L8.937,27.865L8.937,29.025L7.778,29.025L7.778,27.865ZM7.778,29.849L8.937,29.849L8.937,31.006L7.778,31.006L7.778,29.849ZM7.778,31.832L8.937,31.832L8.937,32.99L7.778,32.99L7.778,31.832ZM9.629,27.865L10.786,27.865L10.786,29.025L9.629,29.025L9.629,27.865ZM9.629,29.849L10.786,29.849L10.786,31.006L9.629,31.006L9.629,29.849ZM9.629,31.832L10.786,31.832L10.786,32.99L9.629,32.99L9.629,31.832ZM11.478,27.865L12.638,27.865L12.638,29.025L11.478,29.025L11.478,27.865ZM11.478,29.849L12.638,29.849L12.638,31.006L11.478,31.006L11.478,29.849ZM11.478,31.832L12.638,31.832L12.638,32.99L11.478,32.99L11.478,31.832ZM13.428,27.868L14.585,27.868L14.585,29.025L13.428,29.025L13.428,27.868ZM13.428,29.851L14.585,29.851L14.585,31.008L13.428,31.008L13.428,29.851ZM13.428,31.835L14.585,31.835L14.585,32.992L13.428,32.992L13.428,31.835ZM15.276,27.865L16.436,27.865L16.436,29.025L15.276,29.025L15.276,27.865ZM15.276,29.849L16.436,29.849L16.436,31.008L15.276,31.008L15.276,29.849ZM15.276,31.832L16.436,31.832L16.436,32.992L15.276,32.992L15.276,31.832ZM17.127,27.865L18.286,27.865L18.286,29.025L17.127,29.025L17.127,27.865ZM17.127,29.849L18.286,29.849L18.286,31.008L17.127,31.008L17.127,29.849ZM17.127,31.832L18.286,31.832L18.286,32.992L17.127,32.992L17.127,31.832ZM18.979,27.865L20.136,27.865L20.136,29.025L18.979,29.025L18.979,27.865ZM18.979,29.849L20.136,29.849L20.136,31.008L18.979,31.008L18.979,29.849ZM18.979,31.832L20.136,31.832L20.136,32.992L18.979,32.992L18.979,31.832ZM20.828,27.865L21.988,27.865L21.988,29.025L20.828,29.025L20.828,27.865ZM20.828,29.849L21.988,29.849L21.988,31.006L20.828,31.006L20.828,29.849ZM20.828,31.832L21.988,31.832L21.988,32.99L20.828,32.99L20.828,31.832ZM22.68,27.865L23.837,27.865L23.837,29.025L22.68,29.025L22.68,27.865ZM22.68,29.849L23.837,29.849L23.837,31.006L22.68,31.006L22.68,29.849ZM22.68,31.832L23.837,31.832L23.837,32.99L22.68,32.99L22.68,31.832Z" id="Group_80"/><path d="M8.301,21.769L8.301,18.626L11.444,18.626L11.444,21.769L8.301,21.769ZM12.519,21.769L12.519,18.626L15.662,18.626L15.662,21.769L12.519,21.769ZM16.737,21.769L16.737,18.626L19.88,18.626L19.88,21.769L16.737,21.769Z"/></g></svg>