<?xml version="1.0" ?><!DOCTYPE svg  PUBLIC '-//W3C//DTD SVG 1.1//EN'  'http://www.w3.org/Graphics/SVG/1.1/DTD/svg11.dtd'><svg height="100%" style="fill-rule:evenodd;clip-rule:evenodd;stroke-linejoin:round;stroke-miterlimit:1.41421;" version="1.1" viewBox="0 0 48 48" width="100%" xml:space="preserve" xmlns="http://www.w3.org/2000/svg" xmlns:serif="http://www.serif.com/" xmlns:xlink="http://www.w3.org/1999/xlink"><g id="settings_options_list_switches"><path d="M3.552,35.207L3.552,12.278C3.552,10.608 4.907,9.252 6.578,9.252L41.227,9.252C42.895,9.252 44.255,10.606 44.255,12.278L44.255,35.207C44.255,36.877 42.897,38.233 41.227,38.233L6.578,38.233C4.907,38.233 3.552,36.877 3.552,35.207ZM42.34,35.207L42.34,12.278C42.34,11.668 41.841,11.168 41.227,11.168L6.578,11.168C5.965,11.168 5.466,11.666 5.466,12.278L5.466,35.207C5.466,35.82 5.965,36.318 6.578,36.318L41.227,36.318C41.839,36.318 42.34,35.82 42.34,35.207Z"/><path d="M6.913,13.092C6.913,12.585 7.327,12.172 7.833,12.172C8.339,12.172 8.75,12.585 8.75,13.092C8.75,13.595 8.339,14.009 7.833,14.009C7.327,14.009 6.913,13.595 6.913,13.092ZM9.514,13.092C9.514,12.585 9.924,12.172 10.431,12.172C10.938,12.172 11.35,12.585 11.35,13.092C11.35,13.595 10.938,14.009 10.431,14.009C9.924,14.009 9.514,13.595 9.514,13.092ZM12.113,13.092C12.113,12.585 12.525,12.172 13.03,12.172C13.535,12.172 13.949,12.585 13.949,13.092C13.949,13.595 13.535,14.009 13.03,14.009C12.525,14.009 12.113,13.595 12.113,13.092Z"/><path d="M31.438,29.202L31.215,28.255C30.966,28.181 30.728,28.082 30.502,27.961L29.576,28.536C29.335,28.687 29.055,28.734 28.851,28.536L28.431,28.111C28.231,27.912 28.289,27.645 28.431,27.387L29.001,26.459C28.849,26.172 28.728,25.861 28.652,25.53L27.766,25.317C27.487,25.255 27.253,25.089 27.253,24.808L27.253,24.209C27.253,23.929 27.487,23.78 27.766,23.697L28.787,23.458L29.076,22.853C28.91,22.582 28.742,22.312 28.58,22.043C28.425,21.801 28.379,21.518 28.58,21.32L29.001,20.898C29.2,20.697 29.472,20.758 29.725,20.898L30.591,21.435L31.179,21.195C31.257,20.873 31.344,20.552 31.438,20.235C31.522,19.956 31.666,19.722 31.949,19.722L32.549,19.722C32.829,19.722 32.995,19.956 33.06,20.235L33.303,21.191L34.009,21.484C34.262,21.333 34.515,21.189 34.77,21.046C35.026,20.908 35.294,20.845 35.492,21.046L35.918,21.469C36.12,21.667 36.068,21.95 35.918,22.19L35.471,22.941L35.697,23.419C36.066,23.512 36.417,23.604 36.733,23.697C37.012,23.778 37.246,23.924 37.246,24.209L37.246,24.808C37.246,25.089 37.012,25.253 36.733,25.317L35.834,25.546L35.553,26.349C35.73,26.642 35.9,26.94 36.066,27.241C36.209,27.493 36.267,27.762 36.066,27.961L35.643,28.385C35.443,28.585 35.162,28.536 34.922,28.385L34.105,27.9C33.847,28.051 33.572,28.168 33.283,28.255L33.06,29.202C32.995,29.481 32.832,29.715 32.549,29.715L31.949,29.715C31.668,29.715 31.522,29.481 31.438,29.202ZM34.079,24.718C34.079,23.71 33.258,22.888 32.249,22.888C31.241,22.888 30.419,23.71 30.419,24.718C30.419,25.727 31.241,26.548 32.249,26.548C33.258,26.548 34.079,25.727 34.079,24.718Z"/><path d="M25.127,24.718C25.127,20.795 28.323,17.597 32.249,17.597C36.173,17.597 39.371,20.795 39.371,24.718C39.371,28.644 36.173,31.841 32.249,31.841C28.323,31.841 25.127,28.644 25.127,24.718ZM38.329,24.718C38.329,21.371 35.596,18.639 32.249,18.639C28.9,18.639 26.17,21.371 26.17,24.718C26.17,28.068 28.9,30.798 32.249,30.798C35.596,30.798 38.329,28.068 38.329,24.718Z"/><path d="M6.913,31.744L6.913,31.742C6.913,30.889 7.614,30.193 8.476,30.193L11.878,30.193C12.74,30.193 13.442,30.889 13.442,31.742L13.442,31.744C13.442,32.598 12.74,33.294 11.878,33.294L8.476,33.294C7.614,33.294 6.913,32.598 6.913,31.744ZM10.706,31.666L10.706,31.664C10.706,31.134 10.269,30.702 9.735,30.702L8.457,30.702C7.922,30.702 7.485,31.134 7.485,31.664L7.485,31.666C7.485,32.196 7.922,32.628 8.457,32.628L9.735,32.628C10.269,32.628 10.706,32.196 10.706,31.666Z"/><path d="M14.274,30.724C14.274,30.432 14.513,30.191 14.806,30.191L21.094,30.191C21.386,30.191 21.626,30.432 21.626,30.724C21.626,31.017 21.386,31.256 21.094,31.256L14.806,31.256C14.513,31.256 14.274,31.017 14.274,30.724ZM14.251,32.651C14.251,32.36 14.489,32.119 14.782,32.119L17.441,32.119C17.732,32.119 17.972,32.36 17.972,32.651C17.972,32.945 17.732,33.184 17.441,33.184L14.782,33.184C14.489,33.184 14.251,32.945 14.251,32.651Z"/><path d="M6.911,25.963L6.911,25.961C6.911,25.108 7.614,24.412 8.476,24.412L11.878,24.412C12.74,24.412 13.44,25.108 13.44,25.961L13.44,25.963C13.44,26.816 12.74,27.512 11.878,27.512L8.476,27.512C7.614,27.512 6.911,26.816 6.911,25.963ZM12.87,25.885L12.87,25.883C12.87,25.352 12.433,24.921 11.899,24.921L10.62,24.921C10.086,24.921 9.65,25.352 9.65,25.883L9.65,25.885C9.65,26.414 10.086,26.847 10.62,26.847L11.899,26.847C12.433,26.847 12.87,26.414 12.87,25.885Z"/><path d="M14.244,24.942C14.244,24.65 14.483,24.41 14.776,24.41L17.868,24.41C18.159,24.41 18.401,24.65 18.401,24.942C18.401,25.235 18.159,25.474 17.868,25.474L14.776,25.474C14.483,25.474 14.244,25.235 14.244,24.942ZM14.296,26.87C14.296,26.578 14.534,26.338 14.827,26.338L19.26,26.338C19.552,26.338 19.792,26.578 19.792,26.87C19.792,27.163 19.552,27.401 19.26,27.401L14.827,27.401C14.534,27.401 14.296,27.163 14.296,26.87Z"/><path d="M6.916,19.528L6.916,19.526C6.916,18.672 7.616,17.977 8.478,17.977L11.88,17.977C12.742,17.977 13.444,18.672 13.444,19.526L13.444,19.528C13.444,20.381 12.742,21.078 11.88,21.078L8.478,21.078C7.616,21.078 6.916,20.381 6.916,19.528ZM10.708,19.45L10.708,19.447C10.708,18.918 10.271,18.485 9.737,18.485L8.459,18.485C7.924,18.485 7.489,18.918 7.489,19.447L7.489,19.45C7.489,19.979 7.924,20.412 8.459,20.412L9.737,20.412C10.271,20.412 10.708,19.979 10.708,19.45Z"/><path d="M14.276,18.507C14.276,18.215 14.515,17.975 14.808,17.975L21.096,17.975C21.388,17.975 21.628,18.215 21.628,18.507C21.628,18.801 21.388,19.039 21.096,19.039L14.808,19.039C14.515,19.039 14.276,18.801 14.276,18.507ZM14.298,20.435C14.298,20.143 14.536,19.903 14.829,19.903L19.262,19.903C19.554,19.903 19.794,20.143 19.794,20.435C19.794,20.728 19.554,20.967 19.262,20.967L14.829,20.967C14.536,20.967 14.298,20.728 14.298,20.435Z"/></g></svg>