<?xml version="1.0" ?><!DOCTYPE svg  PUBLIC '-//W3C//DTD SVG 1.1//EN'  'http://www.w3.org/Graphics/SVG/1.1/DTD/svg11.dtd'><svg height="100%" style="fill-rule:evenodd;clip-rule:evenodd;stroke-linejoin:round;stroke-miterlimit:1.41421;" version="1.1" viewBox="0 0 48 48" width="100%" xml:space="preserve" xmlns="http://www.w3.org/2000/svg" xmlns:serif="http://www.serif.com/" xmlns:xlink="http://www.w3.org/1999/xlink"><g id="settings_panel_with_trackbar"><path d="M3.411,35.705L3.411,12.776C3.411,11.106 4.767,9.75 6.437,9.75L41.087,9.75C42.755,9.75 44.115,11.104 44.115,12.776L44.115,35.705C44.115,37.376 42.757,38.731 41.087,38.731L6.437,38.731C4.767,38.731 3.411,37.376 3.411,35.705ZM42.199,35.705L42.199,12.776C42.199,12.165 41.702,11.666 41.087,11.666L6.437,11.666C5.824,11.666 5.326,12.163 5.326,12.776L5.326,35.705C5.326,36.317 5.824,36.816 6.437,36.816L41.087,36.816C41.7,36.816 42.199,36.317 42.199,35.705Z"/><path d="M6.773,13.589C6.773,13.082 7.186,12.67 7.693,12.67C8.199,12.67 8.61,13.082 8.61,13.589C8.61,14.093 8.199,14.506 7.693,14.506C7.186,14.506 6.773,14.093 6.773,13.589ZM9.373,13.589C9.373,13.082 9.785,12.67 10.29,12.67C10.797,12.67 11.21,13.082 11.21,13.589C11.21,14.093 10.797,14.506 10.29,14.506C9.785,14.506 9.373,14.093 9.373,13.589ZM11.972,13.589C11.972,13.082 12.385,12.67 12.889,12.67C13.396,12.67 13.808,13.082 13.808,13.589C13.808,14.093 13.396,14.506 12.889,14.506C12.385,14.506 11.972,14.093 11.972,13.589Z"/><path d="M33.179,22.397L33.026,21.743C32.854,21.692 32.69,21.624 32.534,21.542L31.896,21.937C31.73,22.041 31.537,22.073 31.396,21.937L31.106,21.643C30.968,21.507 31.008,21.322 31.106,21.146L31.5,20.505C31.394,20.307 31.311,20.092 31.26,19.864L30.647,19.718C30.456,19.675 30.294,19.56 30.294,19.366L30.294,18.954C30.294,18.76 30.456,18.658 30.647,18.6L31.351,18.437L31.551,18.018C31.436,17.833 31.321,17.645 31.209,17.46C31.102,17.294 31.07,17.098 31.209,16.962L31.5,16.67C31.636,16.532 31.824,16.575 31.998,16.67L32.596,17.041L33,16.875C33.055,16.654 33.115,16.432 33.179,16.213C33.236,16.022 33.336,15.86 33.533,15.86L33.945,15.86C34.139,15.86 34.253,16.022 34.298,16.213L34.464,16.873L34.951,17.074C35.127,16.97 35.301,16.871 35.478,16.773C35.654,16.677 35.839,16.635 35.975,16.773L36.269,17.064C36.407,17.2 36.373,17.396 36.269,17.562L35.96,18.079L36.116,18.409C36.371,18.473 36.614,18.537 36.83,18.6C37.022,18.656 37.184,18.758 37.184,18.954L37.184,19.366C37.184,19.56 37.022,19.673 36.83,19.718L36.212,19.875L36.018,20.428C36.139,20.631 36.256,20.837 36.371,21.044C36.469,21.218 36.51,21.403 36.371,21.542L36.079,21.833C35.941,21.971 35.747,21.937 35.582,21.833L35.018,21.499C34.841,21.603 34.651,21.684 34.452,21.743L34.298,22.397C34.253,22.588 34.141,22.75 33.945,22.75L33.533,22.75C33.338,22.75 33.236,22.588 33.179,22.397ZM35,19.305C35,18.609 34.434,18.043 33.738,18.043C33.043,18.043 32.477,18.609 32.477,19.305C32.477,20.001 33.043,20.566 33.738,20.566C34.434,20.566 35,20.001 35,19.305Z"/><path d="M30.612,32.37C30.612,32.079 30.851,31.839 31.145,31.839L36.264,31.839C36.557,31.839 36.797,32.079 36.797,32.37C36.797,32.664 36.557,32.903 36.264,32.903L31.145,32.903C30.851,32.903 30.612,32.664 30.612,32.37ZM30.589,30.442C30.589,30.151 30.827,29.91 31.121,29.91L38.382,29.91C38.674,29.91 38.914,30.151 38.914,30.442C38.914,30.737 38.674,30.975 38.382,30.975L31.121,30.975C30.827,30.975 30.589,30.737 30.589,30.442ZM30.612,28.062C30.612,27.77 30.851,27.529 31.145,27.529L36.264,27.529C36.557,27.529 36.797,27.77 36.797,28.062C36.797,28.355 36.557,28.593 36.264,28.593L31.145,28.593C30.851,28.593 30.612,28.355 30.612,28.062ZM30.589,26.133C30.589,25.842 30.827,25.602 31.121,25.602L38.382,25.602C38.674,25.602 38.914,25.842 38.914,26.133C38.914,26.427 38.674,26.665 38.382,26.665L31.121,26.665C30.827,26.665 30.589,26.427 30.589,26.133Z"/><path d="M7.318,32.37C7.318,32.079 7.557,31.839 7.85,31.839L24.816,31.839C25.108,31.839 25.348,32.079 25.348,32.37C25.348,32.664 25.108,32.903 24.816,32.903L7.85,32.903C7.557,32.903 7.318,32.664 7.318,32.37Z"/><path d="M12.459,30.086C13.645,30.086 14.612,31.053 14.612,32.239C14.612,33.425 13.645,34.392 12.459,34.392C11.273,34.392 10.306,33.425 10.306,32.239C10.306,31.053 11.273,30.086 12.459,30.086Z"/><path d="M7.272,26.8L7.272,17.524L25.391,17.524L25.391,26.8L7.272,26.8ZM24.326,25.736L24.326,18.588L8.335,18.588L8.335,25.736L24.326,25.736Z"/><path d="M10.304,24.712L10.304,22.748L12.272,22.748L12.272,24.712L10.304,24.712ZM13.668,24.712L13.668,22.748L15.632,22.748L15.632,24.712L13.668,24.712ZM17.033,24.712L17.033,22.748L18.994,22.748L18.994,24.712L17.033,24.712ZM20.394,24.712L20.394,22.748L22.363,22.748L22.363,24.712L20.394,24.712ZM10.304,21.575L10.304,19.609L12.272,19.609L12.272,21.575L10.304,21.575ZM13.668,21.575L13.668,19.609L15.632,19.609L15.632,21.575L13.668,21.575ZM17.033,21.575L17.033,19.609L18.994,19.609L18.994,21.575L17.033,21.575ZM20.394,21.575L20.394,19.609L22.363,19.609L22.363,21.575L20.394,21.575Z" id="Group_9"/></g></svg>