<?xml version="1.0" ?><svg viewBox="0 0 48 48" xmlns="http://www.w3.org/2000/svg"><title/><g data-name="33-Disk" id="_33-Disk"><path d="M47.71,12.29l-12-12A1,1,0,0,0,35,0H5A5,5,0,0,0,0,5V43a5,5,0,0,0,5,5H43a5,5,0,0,0,5-5V13A1,1,0,0,0,47.71,12.29ZM8,2H34V12H8ZM8,14H34v2H8ZM39,46H9V27H39Zm7-3a3,3,0,0,1-3,3H41V27a2,2,0,0,0-2-2H9a2,2,0,0,0-2,2V46H5a3,3,0,0,1-3-3V5A3,3,0,0,1,5,2H6V17a1,1,0,0,0,1,1H35a1,1,0,0,0,1-1V3.41l10,10Z"/><rect height="2" width="2" x="11" y="29"/><rect height="2" width="2" x="35" y="29"/></g></svg>