<?xml version="1.0" ?><svg enable-background="new 0 0 32 32" id="Glyph" version="1.1" viewBox="0 0 32 32" xml:space="preserve" xmlns="http://www.w3.org/2000/svg" xmlns:xlink="http://www.w3.org/1999/xlink"><path d="M29.707,28.293c0.391,0.391,0.391,1.023,0,1.414c-0.391,0.391-1.023,0.391-1.414,0l-26-26  c-0.391-0.391-0.391-1.023,0-1.414s1.023-0.391,1.414,0L8.894,7.48C10.549,5.335,13.126,4,16,4c4.723,0,8.608,3.657,8.972,8.288  C27.93,13.148,30,15.851,30,19c0,2.593-1.421,4.856-3.522,6.064L29.707,28.293z" id="XMLID_263_"/><path d="M21.47,25.712C21.576,25.818,21.501,26,21.35,26h-11.06c-3.889,0-7.415-2.652-8.145-6.472  c-0.683-3.575,1.095-6.943,4.066-8.544c0.206-0.111,0.464-0.066,0.629,0.1L21.47,25.712z" id="XMLID_265_"/></svg>