<?xml version="1.0" ?><svg id="Layer_1" style="enable-background:new 0 0 24 24;" version="1.1" viewBox="0 0 24 24" xml:space="preserve" xmlns="http://www.w3.org/2000/svg" xmlns:xlink="http://www.w3.org/1999/xlink"><style type="text/css">
	.st0{fill:#1E232D;}
</style><path class="st0" d="M13,20.3V14h-2v6.3c-0.6,0.3-1,1-1,1.7c0,1.1,0.9,2,2,2s2-0.9,2-2C14,21.3,13.6,20.6,13,20.3z M22,17  c-0.7,0-1.4,0.4-1.7,1H17v-2h0.8c2.7,0,5.1-2,5.2-4.7c0.1-2.6-1.7-4.7-4.1-5.2C18.5,2.7,15.6,0,12,0c-0.2,0-0.4,0-0.6,0  C7.8,0.3,5,3.6,5,7.3C5,7.6,4.7,8,4.3,8.1c-2,0.3-3.5,2.2-3.3,4.3C1.2,14.5,3.1,16,5.2,16H7v2H3.7c-0.3-0.6-1-1-1.7-1  c-1.1,0-2,0.9-2,2c0,1.1,0.9,2,2,2c0.7,0,1.4-0.4,1.7-1H9v-6H5.2c-1.1,0-2.1-0.8-2.2-1.8c-0.1-1,0.6-2,1.7-2.2C6,9.8,7,8.6,7,7.3  c0-2.7,2-5,4.6-5.2c0.1,0,0.3,0,0.4,0c2.5,0,4.6,1.9,5,4.4l0.2,1.4l1.4,0.3c1.5,0.3,2.5,1.6,2.4,3.1c-0.1,1.6-1.5,2.8-3.2,2.8H15v6  h5.3c0.3,0.6,1,1,1.7,1c1.1,0,2-0.9,2-2C24,17.9,23.1,17,22,17z"/></svg>