<?xml version="1.0" encoding="UTF-8"?>
<svg id="Layer_1" data-name="Layer 1" xmlns="http://www.w3.org/2000/svg" version="1.1" viewBox="0 0 1253.64 446.9">
  <defs>
    <style>
      .cls-1 {
        fill: #4ba2e3;
      }

      .cls-1, .cls-2, .cls-3, .cls-4 {
        stroke-width: 0px;
      }

      .cls-2 {
        fill: #fff;
      }

      .cls-4 {
        fill: #fff;
      }
    </style>
  </defs>
  <g>
    <g>
      <path class="cls-4" d="M340.06,225.13v-47.3c0-18.33-7.2-26.94-21.61-26.94s-22.87,10.5-22.87,26.78v47.46h-16.29v-86.78h15.19v9.24h.31c6.42-8.3,15.35-11.59,25.37-11.59,20.83,0,36.18,13.16,36.18,37.12v52h-16.29Z"/>
      <path class="cls-4" d="M377.17,225.13v-115.91h16.29v115.91h-16.29Z"/>
      <path class="cls-4" d="M424.32,254.11l12.69-30.7-34.62-85.05h17.54l25.53,67.35,26.16-67.35h17.54l-47.93,115.75h-16.92Z"/>
      <path class="cls-1" d="M500.9,225.13v-115.91h58.58v15.5h-41.66v34.77h41.66v15.51h-41.66v50.12h-16.92Z"/>
      <path class="cls-1" d="M644.84,225.13v-13.47h-.31c-6.11,10.34-17.07,15.66-29.45,15.66-25.37,0-46.05-19.11-46.05-44.17,0-27.72,19.89-47.15,45.42-47.15,12.69,0,23.34,4.7,30.07,14.57h.31v-12.22h16.29v86.78h-16.29ZM645.16,181.9c0-16.92-12.22-31.01-30.23-31.01-16.29,0-29.6,13.94-29.6,31.01s13.31,30.54,29.6,30.54,30.23-14.1,30.23-30.54Z"/>
      <path class="cls-1" d="M742.73,225.13v-47.3c0-18.33-7.21-26.94-21.61-26.94s-22.87,10.5-22.87,26.78v47.46h-16.29v-86.78h15.19v9.24h.31c6.42-8.3,15.35-11.59,25.37-11.59,20.83,0,36.18,13.16,36.18,37.12v52h-16.29Z"/>
      <path class="cls-1" d="M813.99,161.38c-.78-6.27-4.38-10.5-11.12-10.5-6.26,0-10.18,4.23-10.18,9.24,0,7.36,7.52,9.55,16.13,12.22,12.22,3.76,23.49,11.12,23.49,27.25s-12.22,27.72-29.13,27.72c-15.66,0-30.7-10.65-30.7-30.7h16.29c.78,10.49,6.11,15.82,14.72,15.82,7.52,0,12.53-4.86,12.53-11.9,0-5.95-4.54-9.87-14.72-13.16-21.3-6.73-24.9-15.97-24.9-25.84,0-15.35,13-25.53,27.25-25.53s26.16,10.02,26.63,25.38h-16.29Z"/>
      <path class="cls-4" d="M966.08,225.13l-12.84-34.15h-41.66l-12.84,34.15h-17.86l44.01-115.91h15.19l44.01,115.91h-18.01ZM932.71,131.15h-.31l-14.88,44.33h29.92l-14.72-44.33Z"/>
      <path class="cls-4" d="M996.14,225.13v-115.91h33.68c24.9,0,40.72,12.37,40.72,35.08s-15.51,35.09-40.57,35.09h-16.92v45.74h-16.92ZM1029.82,163.89c14.88,0,23.81-7.05,23.81-19.58s-9.24-19.58-23.96-19.58h-16.6v39.16h16.76Z"/>
      <path class="cls-4" d="M1085.26,225.13v-115.91h16.92v115.91h-16.92Z"/>
      <path class="cls-1" d="M208.67,225.13c-30.94,0-57.2-26.56-57.2-56.74,0-34.26,26.26-59.16,57.65-59.16,33.2,0,58.56,26.11,58.56,57.2,0,33.8-26.11,58.7-59.01,58.7ZM251.38,167.48c0-23.09-17.5-43.31-41.05-43.31-30.19,0-42.56,25.95-42.56,42.56,0,22.49,16.3,43.47,41.8,43.47s41.8-22.34,41.8-42.71Z"/>
    </g>
    <g>
      <path class="cls-2" d="M389.14,337.68c-2.52,0-4.95-.26-7.29-.78s-4.41-1.35-6.21-2.49c-1.8-1.15-3.22-2.61-4.25-4.39-1.04-1.78-1.55-3.9-1.55-6.38,0-.27.01-.53.03-.77.02-.25.03-.46.03-.64h7.56c0,.14-.01.34-.03.61-.02.27-.03.49-.03.68,0,1.67.49,3.08,1.48,4.25.99,1.17,2.37,2.05,4.15,2.63,1.78.59,3.81.88,6.11.88,1.26,0,2.47-.08,3.64-.23,1.17-.16,2.24-.41,3.21-.74.97-.34,1.81-.76,2.53-1.28.72-.52,1.28-1.13,1.69-1.86s.61-1.55.61-2.5c0-1.44-.42-2.63-1.25-3.57-.83-.95-1.96-1.73-3.37-2.36-1.42-.63-3.01-1.19-4.79-1.69-1.78-.49-3.61-.99-5.5-1.48-1.89-.49-3.72-1.08-5.5-1.75-1.78-.68-3.37-1.5-4.79-2.46-1.42-.97-2.54-2.18-3.37-3.65-.83-1.46-1.25-3.25-1.25-5.36s.43-3.82,1.28-5.4c.85-1.57,2.09-2.89,3.71-3.95,1.62-1.05,3.55-1.86,5.8-2.39,2.25-.54,4.79-.81,7.62-.81,2.43,0,4.72.26,6.88.77,2.16.52,4.05,1.32,5.67,2.4,1.62,1.08,2.89,2.45,3.81,4.11.92,1.66,1.38,3.64,1.38,5.94v.81h-7.49v-.88c0-1.44-.43-2.65-1.28-3.64s-2.05-1.76-3.58-2.29c-1.53-.54-3.31-.81-5.33-.81-2.38,0-4.38.24-6,.71s-2.85,1.13-3.68,1.96c-.83.83-1.25,1.83-1.25,3,0,1.31.43,2.37,1.28,3.2.85.83,1.99,1.54,3.41,2.13,1.42.59,3.01,1.11,4.79,1.58,1.78.47,3.6.97,5.47,1.48,1.87.52,3.69,1.11,5.46,1.79,1.78.68,3.37,1.51,4.79,2.5,1.42.99,2.55,2.22,3.41,3.68.85,1.46,1.28,3.25,1.28,5.37,0,3.33-.83,6.04-2.5,8.13-1.66,2.09-3.95,3.61-6.85,4.55-2.9.94-6.22,1.42-9.95,1.42Z"/>
      <path class="cls-2" d="M463.35,337.68c-4.77,0-8.89-.88-12.38-2.63-3.49-1.75-6.16-4.41-8.03-7.96-1.87-3.56-2.8-8.01-2.8-13.36s.93-9.86,2.8-13.39c1.87-3.53,4.54-6.17,8.03-7.93,3.49-1.75,7.61-2.63,12.38-2.63s9.02.88,12.48,2.63c3.46,1.75,6.13,4.4,7.99,7.93,1.87,3.53,2.8,7.99,2.8,13.39s-.93,9.8-2.8,13.36c-1.87,3.55-4.53,6.21-7.99,7.96-3.46,1.76-7.62,2.63-12.48,2.63ZM463.35,331.27c2.47,0,4.67-.34,6.58-1.01s3.53-1.71,4.86-3.1c1.33-1.39,2.34-3.15,3.04-5.26s1.05-4.57,1.05-7.36v-1.48c0-2.88-.35-5.37-1.05-7.49-.7-2.11-1.71-3.87-3.04-5.26-1.33-1.39-2.95-2.43-4.86-3.1s-4.1-1.01-6.58-1.01-4.6.34-6.51,1.01c-1.91.68-3.53,1.71-4.86,3.1-1.33,1.39-2.33,3.15-3,5.26-.67,2.12-1.01,4.61-1.01,7.49v1.48c0,2.79.34,5.24,1.01,7.36s1.68,3.87,3,5.26c1.33,1.39,2.95,2.43,4.86,3.1,1.91.67,4.08,1.01,6.51,1.01Z"/>
      <path class="cls-2" d="M520.5,336.87v-46.28h7.56v39.74h23.07v6.54h-30.63Z"/>
      <path class="cls-2" d="M599.5,337.68c-3.96,0-7.38-.64-10.25-1.92-2.88-1.28-5.08-3.27-6.61-5.97s-2.29-6.12-2.29-10.26v-28.94h7.56v29.14c0,3.82,1.01,6.7,3.04,8.64,2.03,1.93,4.88,2.9,8.57,2.9s6.65-.97,8.74-2.9,3.14-4.81,3.14-8.64v-29.14h7.55v28.94c0,4.14-.77,7.56-2.33,10.26s-3.78,4.69-6.68,5.97-6.38,1.92-10.42,1.92Z"/>
      <path class="cls-2" d="M666.15,336.87v-39.8h-15.32v-6.48h38.32v6.48h-15.45v39.8h-7.56Z"/>
      <path class="cls-2" d="M721.27,336.87v-46.28h7.56v46.28h-7.56Z"/>
      <path class="cls-2" d="M785.9,337.68c-4.76,0-8.89-.88-12.38-2.63-3.49-1.75-6.16-4.41-8.03-7.96-1.87-3.56-2.8-8.01-2.8-13.36s.93-9.86,2.8-13.39c1.86-3.53,4.54-6.17,8.03-7.93s7.61-2.63,12.38-2.63,9.02.88,12.48,2.63c3.46,1.75,6.13,4.4,7.99,7.93,1.87,3.53,2.8,7.99,2.8,13.39s-.93,9.8-2.8,13.36c-1.87,3.55-4.53,6.21-7.99,7.96-3.46,1.76-7.62,2.63-12.48,2.63ZM785.9,331.27c2.47,0,4.67-.34,6.58-1.01s3.53-1.71,4.86-3.1,2.34-3.15,3.04-5.26,1.05-4.57,1.05-7.36v-1.48c0-2.88-.35-5.37-1.05-7.49-.7-2.11-1.71-3.87-3.04-5.26s-2.94-2.43-4.86-3.1-4.1-1.01-6.58-1.01-4.6.34-6.51,1.01c-1.91.68-3.53,1.71-4.86,3.1s-2.33,3.15-3,5.26c-.68,2.12-1.01,4.61-1.01,7.49v1.48c0,2.79.34,5.24,1.01,7.36.67,2.11,1.67,3.87,3,5.26s2.95,2.43,4.86,3.1c1.91.67,4.08,1.01,6.51,1.01Z"/>
      <path class="cls-2" d="M843.05,336.87v-46.28h7.28l21.12,29.01c.27.27.57.65.91,1.14.34.5.66.99.98,1.48s.54.9.68,1.21h.34v-32.85h7.29v46.28h-7.02l-21.39-29.35c-.36-.54-.81-1.22-1.35-2.06-.54-.83-.95-1.47-1.22-1.92h-.34v33.33h-7.28Z"/>
    </g>
  </g>
</svg>