<?xml version="1.0" encoding="UTF-8"?>
<svg id="Layer_1" data-name="Layer 1" xmlns="http://www.w3.org/2000/svg" version="1.1" viewBox="0 0 1080 1080">
  <defs>
    <style>
      .cls-1 {
        fill: #4ba2e3;
      }

      .cls-1, .cls-2, .cls-3 {
        stroke-width: 0px;
      }

      .cls-2 {
        fill: #a5a5a5;
      }

      .cls-3 {
        fill: #fff;
      }
    </style>
  </defs>
  <g>
    <g>
      <path class="cls-1" d="M-533.33,439.53c-.57-.73-.86-1.51-.86-2.33,0-1.08.38-2.03,1.14-2.86.76-.82,1.69-1.24,2.77-1.24.63,0,1.11.03,1.43.1,6.55,1.33,11.09,3.48,13.63,6.43,2.54,2.96,3.81,6.88,3.81,11.77l-.19,9.72c0,3.43.76,6.01,2.29,7.72,1.53,1.72,3.59,2.64,6.2,2.76h.38c1.21,0,2.24.41,3.1,1.24.86.83,1.29,1.87,1.29,3.15s-.43,2.32-1.29,3.15c-.86.82-1.89,1.24-3.1,1.24h-.57c-2.54.13-4.56,1.05-6.05,2.77-1.5,1.72-2.24,4.29-2.24,7.72l.19,9.72c0,4.89-1.27,8.82-3.81,11.77-2.54,2.96-7.09,5.1-13.63,6.43-.25.06-.63.1-1.14.1-1.33,0-2.37-.41-3.1-1.24-.73-.83-1.1-1.84-1.1-3.05,0-.83.3-1.59.91-2.29s1.38-1.21,2.34-1.52c2.54-.89,4.45-1.86,5.72-2.91,1.27-1.05,2.11-2.26,2.53-3.62.41-1.37.62-3.13.62-5.29l-.19-9.91c0-3.5.84-6.28,2.53-8.34,1.68-2.07,4.08-3.64,7.2-4.72-3.11-1.08-5.51-2.67-7.2-4.77-1.69-2.1-2.53-4.86-2.53-8.29l.19-9.91c0-2.16-.22-3.91-.67-5.24-.44-1.33-1.28-2.53-2.52-3.58-1.24-1.05-3.13-2.05-5.67-3-1.02-.38-1.81-.94-2.39-1.67Z"/>
      <path class="cls-1" d="M-624.93,479.19c-.86-.83-1.29-1.88-1.29-3.15s.43-2.32,1.29-3.15c.86-.83,1.89-1.24,3.1-1.24h.57c2.54-.13,4.56-1.05,6.05-2.77,1.49-1.72,2.24-4.29,2.24-7.72l-.19-9.72c0-4.89,1.27-8.82,3.82-11.77,2.54-2.96,7.09-5.1,13.63-6.43.63-.13,1.18-.19,1.62-.19,1.08,0,1.97.48,2.67,1.43.7.95,1.05,1.94,1.05,2.95,0,.83-.3,1.59-.91,2.29-.6.7-1.38,1.21-2.33,1.52-2.54.89-4.45,1.86-5.72,2.91-1.27,1.05-2.11,2.26-2.53,3.62-.41,1.37-.62,3.13-.62,5.29l.19,9.91c0,3.5-.84,6.28-2.52,8.34-1.69,2.06-4.08,3.64-7.2,4.72,3.11,1.08,5.51,2.67,7.2,4.77,1.68,2.1,2.52,4.86,2.52,8.29l-.19,9.91c0,2.16.23,3.91.67,5.24.44,1.33,1.29,2.53,2.52,3.58,1.24,1.05,3.13,2.05,5.68,3,1.02.38,1.81.94,2.38,1.67.57.73.86,1.51.86,2.33,0,1.08-.38,2.03-1.14,2.86-.76.82-1.68,1.24-2.77,1.24-.63,0-1.11-.03-1.43-.1-6.54-1.33-11.09-3.48-13.63-6.43-2.54-2.96-3.82-6.88-3.82-11.77l.19-9.72c0-3.43-.76-6.01-2.29-7.72-1.53-1.72-3.59-2.64-6.2-2.77h-.38c-1.2,0-2.24-.41-3.1-1.24Z"/>
      <path class="cls-1" d="M-542.45,437.56c-.63,0-1.27-.14-1.88-.43-5.79-2.76-12.01-4.16-18.48-4.16-6.1,0-12,1.25-17.52,3.72-2.2.99-4.79,0-5.77-2.21-.98-2.2,0-4.79,2.21-5.77,6.65-2.97,13.75-4.48,21.09-4.48,7.78,0,15.26,1.68,22.24,5.01,2.18,1.04,3.1,3.65,2.07,5.83-.75,1.57-2.32,2.49-3.95,2.49Z"/>
      <path class="cls-1" d="M-561.75,525.55c-7.78,0-15.26-1.68-22.24-5.01-2.18-1.04-3.1-3.65-2.07-5.83,1.04-2.18,3.65-3.11,5.83-2.07,5.79,2.76,12.01,4.16,18.48,4.16,6.1,0,12-1.25,17.52-3.72,2.2-.99,4.79,0,5.77,2.21.98,2.2,0,4.79-2.21,5.77-6.65,2.97-13.75,4.48-21.09,4.48Z"/>
    </g>
    <path class="cls-1" d="M-562.28,575.94c-55.72,0-101.05-45.33-101.05-101.05,0-8.18.98-16.33,2.92-24.2.74-3.01,3.79-4.86,6.8-4.12,3.01.74,4.86,3.78,4.12,6.8-1.72,7-2.59,14.24-2.59,21.52,0,49.52,40.29,89.81,89.81,89.81s89.81-40.29,89.81-89.81-40.29-89.81-89.81-89.81c-24.79,0-48.71,10.39-65.64,28.51-2.12,2.27-5.67,2.39-7.94.27-2.27-2.12-2.39-5.67-.27-7.94,9.36-10.02,20.43-17.9,32.91-23.44,12.92-5.73,26.7-8.64,40.94-8.64,55.72,0,101.05,45.33,101.05,101.05s-45.33,101.05-101.05,101.05Z"/>
    <path class="cls-1" d="M-689.25,506.27c-2.62,0-4.96-1.84-5.5-4.5-4.62-22.68-3.27-46.38,3.9-68.53,11.12-34.34,34.96-62.3,67.11-78.72,32.15-16.42,68.77-19.33,103.11-8.21,10.41,3.37,20.37,7.98,29.59,13.69,2.64,1.63,3.45,5.1,1.82,7.74-1.63,2.64-5.1,3.45-7.74,1.82-8.45-5.23-17.59-9.46-27.14-12.55-31.49-10.2-65.06-7.53-94.54,7.52-29.48,15.05-51.33,40.68-61.53,72.17-6.58,20.31-7.82,42.03-3.58,62.82.62,3.04-1.34,6.01-4.38,6.63-.38.08-.76.11-1.13.11Z"/>
    <path class="cls-1" d="M-562.13,610.11c-14.01,0-28.08-2.2-41.79-6.65-12.46-4.04-24.2-9.81-34.9-17.15-2.56-1.76-3.21-5.25-1.45-7.81,1.76-2.56,5.25-3.21,7.81-1.45,9.81,6.73,20.58,12.02,32.01,15.73,31.49,10.2,65.06,7.53,94.54-7.52,29.48-15.05,51.33-40.68,61.53-72.17,5.39-16.62,7.2-33.79,5.4-51.02-1.74-16.65-6.76-32.55-14.91-47.26-1.5-2.71-.52-6.13,2.19-7.64,2.71-1.51,6.13-.52,7.64,2.19,8.89,16.04,14.36,33.38,16.26,51.54,1.97,18.8-.01,37.53-5.88,55.66-11.13,34.34-34.96,62.3-67.11,78.72-19.31,9.86-40.24,14.85-61.32,14.85Z"/>
    <path class="cls-1" d="M-482.69,356.93c-8.65,0-15.67,7.02-15.67,15.67s7.02,15.67,15.67,15.67,15.67-7.02,15.67-15.67-7.02-15.67-15.67-15.67ZM-482.69,379.43c-3.77,0-6.82-3.05-6.82-6.82s3.05-6.82,6.82-6.82,6.82,3.06,6.82,6.82-3.05,6.82-6.82,6.82Z"/>
    <path class="cls-1" d="M-646.63,555.76c-8.65,0-15.67,7.02-15.67,15.67s7.02,15.67,15.67,15.67,15.67-7.02,15.67-15.67-7.02-15.67-15.67-15.67ZM-646.63,578.25c-3.77,0-6.82-3.05-6.82-6.82s3.05-6.82,6.82-6.82,6.82,3.06,6.82,6.82-3.05,6.82-6.82,6.82Z"/>
    <path class="cls-1" d="M-639.81,405.42c-8.65,0-15.67,7.02-15.67,15.67s7.02,15.67,15.67,15.67,15.67-7.02,15.67-15.67-7.02-15.67-15.67-15.67ZM-639.81,427.92c-3.77,0-6.82-3.05-6.82-6.82s3.05-6.82,6.82-6.82,6.82,3.06,6.82,6.82-3.05,6.82-6.82,6.82Z"/>
  </g>
  <g>
    <path class="cls-3" d="M-692.39,687.34v-21.46c0-8.32-3.27-12.23-9.81-12.23s-10.38,4.76-10.38,12.15v21.54h-7.39v-39.38h6.89v4.19h.14c2.91-3.77,6.97-5.26,11.51-5.26,9.45,0,16.42,5.97,16.42,16.84v23.6h-7.39Z"/>
    <path class="cls-3" d="M-675.55,687.34v-52.6h7.39v52.6h-7.39Z"/>
    <path class="cls-3" d="M-654.16,700.48l5.76-13.93-15.71-38.59h7.96l11.58,30.56,11.87-30.56h7.96l-21.75,52.53h-7.68Z"/>
    <path class="cls-1" d="M-619.4,687.34v-52.6h26.58v7.04h-18.91v15.78h18.91v7.04h-18.91v22.74h-7.68Z"/>
    <path class="cls-1" d="M-554.09,687.34v-6.11h-.14c-2.77,4.69-7.75,7.11-13.36,7.11-11.51,0-20.9-8.67-20.9-20.04,0-12.58,9.03-21.39,20.61-21.39,5.76,0,10.59,2.13,13.65,6.61h.14v-5.54h7.39v39.38h-7.39ZM-553.95,667.72c0-7.68-5.54-14.07-13.72-14.07-7.39,0-13.43,6.33-13.43,14.07s6.04,13.86,13.43,13.86,13.72-6.4,13.72-13.86Z"/>
    <path class="cls-1" d="M-509.67,687.34v-21.46c0-8.32-3.27-12.23-9.81-12.23s-10.38,4.76-10.38,12.15v21.54h-7.39v-39.38h6.89v4.19h.14c2.91-3.77,6.97-5.26,11.51-5.26,9.45,0,16.42,5.97,16.42,16.84v23.6h-7.39Z"/>
    <path class="cls-1" d="M-477.33,658.41c-.35-2.84-1.99-4.76-5.05-4.76-2.84,0-4.62,1.92-4.62,4.19,0,3.34,3.41,4.33,7.32,5.54,5.54,1.71,10.66,5.05,10.66,12.37s-5.54,12.58-13.22,12.58c-7.11,0-13.93-4.83-13.93-13.93h7.39c.36,4.76,2.77,7.18,6.68,7.18,3.41,0,5.69-2.2,5.69-5.4,0-2.7-2.06-4.48-6.68-5.97-9.67-3.06-11.3-7.25-11.3-11.73,0-6.96,5.9-11.58,12.37-11.58s11.87,4.55,12.08,11.51h-7.39Z"/>
    <path class="cls-3" d="M-408.32,687.34l-5.83-15.5h-18.91l-5.83,15.5h-8.1l19.97-52.6h6.89l19.97,52.6h-8.17ZM-423.46,644.69h-.14l-6.75,20.12h13.58l-6.68-20.12Z"/>
    <path class="cls-3" d="M-394.68,687.34v-52.6h15.28c11.3,0,18.48,5.61,18.48,15.92s-7.04,15.92-18.41,15.92h-7.68v20.75h-7.68ZM-379.4,659.54c6.75,0,10.8-3.2,10.8-8.88s-4.19-8.88-10.87-8.88h-7.53v17.77h7.61Z"/>
    <path class="cls-3" d="M-354.24,687.34v-52.6h7.68v52.6h-7.68Z"/>
    <path class="cls-1" d="M-752.01,687.34c-14.04,0-25.95-12.05-25.95-25.75,0-15.55,11.92-26.85,26.16-26.85,15.07,0,26.57,11.85,26.57,25.96,0,15.34-11.85,26.64-26.78,26.64ZM-732.63,661.17c0-10.48-7.94-19.65-18.63-19.65-13.7,0-19.31,11.78-19.31,19.31,0,10.2,7.4,19.73,18.97,19.73s18.97-10.14,18.97-19.38Z"/>
  </g>
  <g>
    <path class="cls-2" d="M-670.12,738.41c-1.14,0-2.25-.12-3.31-.35s-2-.61-2.82-1.13c-.82-.52-1.46-1.18-1.93-1.99-.47-.81-.7-1.77-.7-2.89,0-.12,0-.24.02-.35,0-.11.02-.21.02-.29h3.43c0,.06,0,.15-.02.28-.01.12-.02.22-.02.31,0,.76.22,1.4.67,1.93.45.53,1.08.93,1.88,1.19.81.27,1.73.4,2.77.4.57,0,1.12-.04,1.65-.11.53-.07,1.02-.18,1.45-.34.44-.15.82-.35,1.15-.58.33-.23.58-.51.77-.84s.28-.7.28-1.13c0-.65-.19-1.19-.57-1.62-.38-.43-.89-.79-1.53-1.07-.64-.29-1.37-.54-2.17-.77-.81-.22-1.64-.45-2.5-.67-.86-.22-1.69-.49-2.5-.8-.81-.31-1.53-.68-2.17-1.12-.64-.44-1.15-.99-1.53-1.65-.38-.66-.57-1.47-.57-2.43s.19-1.73.58-2.45c.39-.71.95-1.31,1.68-1.79.73-.48,1.61-.84,2.63-1.09,1.02-.25,2.17-.37,3.46-.37,1.1,0,2.14.12,3.12.35.98.23,1.84.6,2.57,1.09.73.49,1.31,1.11,1.73,1.87.42.75.63,1.65.63,2.69v.37h-3.4v-.4c0-.65-.19-1.2-.58-1.65s-.93-.8-1.62-1.04c-.69-.25-1.5-.37-2.42-.37-1.08,0-1.99.11-2.72.32s-1.29.51-1.67.89c-.38.38-.57.83-.57,1.36,0,.59.19,1.08.58,1.45.39.38.9.7,1.55.96.64.27,1.37.5,2.17.72.81.21,1.63.44,2.48.67.85.23,1.67.5,2.48.81.81.31,1.53.68,2.17,1.13.64.45,1.16,1.01,1.55,1.67.39.66.58,1.47.58,2.43,0,1.51-.38,2.74-1.13,3.69-.75.95-1.79,1.64-3.11,2.07s-2.82.64-4.52.64Z"/>
    <path class="cls-2" d="M-636.44,738.41c-2.16,0-4.04-.4-5.62-1.19-1.58-.79-2.8-2-3.64-3.61-.85-1.61-1.27-3.63-1.27-6.06s.42-4.47,1.27-6.08c.85-1.6,2.06-2.8,3.64-3.6s3.45-1.19,5.62-1.19,4.09.4,5.66,1.19c1.57.8,2.78,2,3.63,3.6.85,1.6,1.27,3.63,1.27,6.08s-.42,4.45-1.27,6.06c-.85,1.61-2.06,2.82-3.63,3.61-1.57.8-3.46,1.19-5.66,1.19ZM-636.44,735.5c1.12,0,2.12-.15,2.98-.46s1.6-.78,2.2-1.41c.6-.63,1.06-1.43,1.38-2.39s.47-2.07.47-3.34v-.67c0-1.31-.16-2.44-.47-3.4-.32-.96-.78-1.75-1.38-2.39-.6-.63-1.34-1.1-2.2-1.41s-1.86-.46-2.98-.46-2.09.15-2.95.46c-.87.31-1.6.78-2.2,1.41-.6.63-1.06,1.43-1.36,2.39-.31.96-.46,2.09-.46,3.4v.67c0,1.27.15,2.38.46,3.34s.76,1.75,1.36,2.39c.6.63,1.34,1.1,2.2,1.41.87.31,1.85.46,2.95.46Z"/>
    <path class="cls-2" d="M-610.51,738.04v-21h3.43v18.03h10.47v2.97h-13.9Z"/>
    <path class="cls-2" d="M-574.66,738.41c-1.8,0-3.35-.29-4.65-.87s-2.31-1.48-3-2.71-1.04-2.78-1.04-4.65v-13.13h3.43v13.22c0,1.74.46,3.04,1.38,3.92s2.21,1.32,3.89,1.32,3.02-.44,3.96-1.32,1.42-2.18,1.42-3.92v-13.22h3.43v13.13c0,1.88-.35,3.43-1.06,4.65s-1.71,2.13-3.03,2.71-2.89.87-4.73.87Z"/>
    <path class="cls-2" d="M-544.42,738.04v-18.06h-6.95v-2.94h17.39v2.94h-7.01v18.06h-3.43Z"/>
    <path class="cls-2" d="M-519.41,738.04v-21h3.43v21h-3.43Z"/>
    <path class="cls-2" d="M-490.08,738.41c-2.16,0-4.04-.4-5.62-1.19-1.58-.79-2.8-2-3.64-3.61-.85-1.61-1.27-3.63-1.27-6.06s.42-4.47,1.27-6.08c.85-1.6,2.06-2.8,3.64-3.6s3.45-1.19,5.62-1.19,4.09.4,5.66,1.19c1.57.8,2.78,2,3.63,3.6.85,1.6,1.27,3.63,1.27,6.08s-.42,4.45-1.27,6.06c-.85,1.61-2.06,2.82-3.63,3.61-1.57.8-3.46,1.19-5.66,1.19ZM-490.08,735.5c1.12,0,2.12-.15,2.98-.46s1.6-.78,2.2-1.41c.6-.63,1.06-1.43,1.38-2.39s.47-2.07.47-3.34v-.67c0-1.31-.16-2.44-.47-3.4-.32-.96-.78-1.75-1.38-2.39-.6-.63-1.34-1.1-2.2-1.41s-1.86-.46-2.98-.46-2.09.15-2.95.46c-.87.31-1.6.78-2.2,1.41-.6.63-1.06,1.43-1.36,2.39-.31.96-.46,2.09-.46,3.4v.67c0,1.27.15,2.38.46,3.34s.76,1.75,1.36,2.39c.6.63,1.34,1.1,2.2,1.41.87.31,1.85.46,2.95.46Z"/>
    <path class="cls-2" d="M-464.15,738.04v-21h3.31l9.58,13.16c.12.12.26.3.41.52.15.23.3.45.44.67.14.22.24.41.31.55h.15v-14.91h3.31v21h-3.18l-9.7-13.32c-.16-.24-.37-.56-.61-.93-.25-.38-.43-.67-.55-.87h-.15v15.12h-3.31Z"/>
  </g>
  <g>
    <g>
      <path class="cls-1" d="M631.8,427.8c-1.81-2.31-2.72-4.79-2.72-7.41,0-3.43,1.21-6.45,3.63-9.08,2.43-2.61,5.35-3.93,8.77-3.93,2.01,0,3.53.1,4.54.3,20.77,4.23,35.19,11.04,43.26,20.42,8.06,9.38,12.1,21.83,12.1,37.35l-.61,30.85c0,10.89,2.41,19.06,7.26,24.5,4.84,5.44,11.39,8.36,19.66,8.77h1.21c3.83,0,7.11,1.31,9.83,3.93,2.73,2.62,4.09,5.95,4.09,9.99s-1.36,7.36-4.09,9.98c-2.72,2.61-5.99,3.93-9.83,3.93h-1.81c-8.07.4-14.48,3.32-19.21,8.77-4.74,5.44-7.11,13.61-7.11,24.5l.61,30.85c0,15.53-4.04,27.98-12.1,37.35-8.07,9.38-22.48,16.18-43.26,20.42-.8.2-2.01.3-3.63.3-4.23,0-7.51-1.31-9.83-3.93-2.32-2.62-3.48-5.85-3.48-9.68,0-2.63.96-5.04,2.88-7.26,1.92-2.22,4.38-3.83,7.41-4.84,8.06-2.83,14.11-5.9,18.14-9.23,4.04-3.32,6.71-7.16,8.02-11.49,1.31-4.34,1.97-9.94,1.97-16.79l-.61-31.46c0-11.09,2.67-19.92,8.02-26.47,5.34-6.55,12.96-11.55,22.84-14.97-9.88-3.43-17.5-8.47-22.84-15.12-5.35-6.66-8.02-15.43-8.02-26.31l.61-31.46c0-6.86-.7-12.4-2.12-16.64-1.41-4.23-4.08-8.01-8.01-11.35-3.93-3.32-9.94-6.5-17.99-9.53-3.23-1.21-5.75-2.97-7.57-5.3Z"/>
      <path class="cls-1" d="M341.19,553.62c-2.72-2.63-4.09-5.95-4.09-9.99s1.37-7.36,4.09-9.98c2.72-2.62,6.01-3.93,9.83-3.93h1.82c8.06-.41,14.46-3.32,19.21-8.77,4.73-5.44,7.1-13.61,7.1-24.5l-.61-30.85c0-15.53,4.04-27.98,12.11-37.35,8.06-9.38,22.48-16.18,43.24-20.42,2.01-.41,3.74-.61,5.14-.61,3.43,0,6.25,1.51,8.47,4.54,2.22,3.02,3.32,6.15,3.32,9.37,0,2.63-.96,5.04-2.88,7.26-1.91,2.22-4.38,3.83-7.4,4.84-8.07,2.83-14.11,5.9-18.15,9.23-4.03,3.32-6.7,7.16-8.02,11.49-1.31,4.34-1.97,9.93-1.97,16.79l.61,31.46c0,11.09-2.67,19.91-8.01,26.47-5.35,6.55-12.96,11.54-22.84,14.97,9.88,3.43,17.49,8.47,22.84,15.12,5.34,6.66,8.01,15.43,8.01,26.31l-.61,31.46c0,6.86.72,12.4,2.12,16.64,1.41,4.23,4.08,8.02,8.01,11.35,3.93,3.32,9.94,6.5,18.01,9.53,3.23,1.21,5.74,2.97,7.56,5.3,1.81,2.32,2.72,4.79,2.72,7.41,0,3.43-1.21,6.46-3.63,9.08-2.41,2.61-5.34,3.93-8.77,3.93-2.01,0-3.52-.1-4.54-.3-20.76-4.23-35.19-11.04-43.24-20.42-8.07-9.38-12.11-21.83-12.11-37.35l.61-30.85c0-10.89-2.41-19.06-7.26-24.5-4.84-5.45-11.39-8.37-19.66-8.77h-1.21c-3.82,0-7.11-1.32-9.83-3.93Z"/>
      <path class="cls-1" d="M602.87,421.54c-2,0-4.03-.43-5.95-1.35-18.37-8.75-38.1-13.19-58.62-13.19-19.37,0-38.07,3.97-55.6,11.8-6.99,3.13-15.19-.01-18.32-7.01-3.12-6.99.01-15.19,7.01-18.32,21.11-9.43,43.62-14.21,66.91-14.21,24.69,0,48.42,5.35,70.55,15.89,6.91,3.29,9.85,11.57,6.56,18.48-2.38,4.99-7.35,7.91-12.53,7.91Z"/>
      <path class="cls-1" d="M541.63,700.73c-24.69,0-48.42-5.35-70.55-15.89-6.91-3.29-9.85-11.57-6.56-18.48,3.29-6.91,11.57-9.85,18.48-6.55,18.37,8.75,38.1,13.19,58.62,13.19,19.37,0,38.07-3.97,55.6-11.8,6.99-3.13,15.19.01,18.32,7.01,3.12,6.99-.01,15.19-7.01,18.32-21.11,9.43-43.62,14.21-66.91,14.21Z"/>
    </g>
    <path class="cls-1" d="M539.96,860.6c-176.78,0-320.6-143.82-320.6-320.6,0-25.97,3.12-51.8,9.26-76.79,2.35-9.56,12.01-15.42,21.57-13.06,9.56,2.35,15.41,12.01,13.06,21.57-5.46,22.2-8.23,45.18-8.23,68.28,0,157.12,127.82,284.94,284.94,284.94s284.94-127.82,284.94-284.94-127.82-284.94-284.94-284.94c-78.64,0-154.55,32.97-208.26,90.47-6.72,7.2-18,7.58-25.2.86-7.19-6.72-7.58-18-.86-25.2,29.69-31.78,64.82-56.8,104.41-74.37,41-18.19,84.7-27.41,129.9-27.41,176.78,0,320.6,143.82,320.6,320.6s-143.82,320.6-320.6,320.6Z"/>
    <path class="cls-1" d="M137.11,639.55c-8.3,0-15.73-5.82-17.45-14.27-14.67-71.96-10.39-147.14,12.38-217.42,35.3-108.96,110.91-197.65,212.92-249.74,102-52.09,218.19-61.34,327.15-26.04,33.04,10.7,64.63,25.32,93.89,43.43,8.37,5.18,10.96,16.17,5.77,24.54-5.18,8.37-16.17,10.96-24.54,5.77-26.82-16.61-55.8-30.01-86.11-39.83-99.9-32.36-206.42-23.88-299.95,23.87-93.52,47.76-162.85,129.08-195.21,228.98-20.87,64.44-24.8,133.36-11.36,199.31,1.97,9.65-4.26,19.06-13.91,21.03-1.2.24-2.4.36-3.58.36Z"/>
    <path class="cls-1" d="M540.42,969.01c-44.45,0-89.09-6.99-132.6-21.08-39.53-12.81-76.79-31.12-110.74-54.42-8.12-5.57-10.18-16.67-4.61-24.79,5.57-8.12,16.67-10.18,24.79-4.61,31.11,21.36,65.28,38.15,101.54,49.89,99.9,32.36,206.42,23.88,299.95-23.87,93.52-47.76,162.85-129.08,195.21-228.98,17.09-52.74,22.85-107.21,17.12-161.88-5.53-52.83-21.45-103.28-47.32-149.94-4.77-8.61-1.66-19.46,6.95-24.24,8.61-4.78,19.46-1.66,24.24,6.95,28.2,50.88,45.56,105.89,51.59,163.51,6.25,59.66-.03,119.07-18.66,176.58-35.3,108.96-110.91,197.65-212.92,249.74-61.28,31.29-127.68,47.12-194.55,47.12Z"/>
    <path class="cls-1" d="M792.47,165.76c-27.46,0-49.72,22.26-49.72,49.72s22.26,49.72,49.72,49.72,49.72-22.26,49.72-49.72-22.26-49.72-49.72-49.72ZM792.47,237.12c-11.96,0-21.65-9.69-21.65-21.65s9.69-21.65,21.65-21.65,21.65,9.69,21.65,21.65-9.69,21.65-21.65,21.65Z"/>
    <path class="cls-1" d="M272.32,796.56c-27.46,0-49.72,22.26-49.72,49.72s22.26,49.72,49.72,49.72,49.72-22.26,49.72-49.72-22.26-49.72-49.72-49.72ZM272.32,867.93c-11.96,0-21.65-9.69-21.65-21.65s9.69-21.65,21.65-21.65,21.65,9.69,21.65,21.65-9.69,21.65-21.65,21.65Z"/>
    <path class="cls-1" d="M293.97,319.59c-27.46,0-49.72,22.26-49.72,49.72s22.26,49.72,49.72,49.72,49.72-22.26,49.72-49.72-22.26-49.72-49.72-49.72ZM293.97,390.96c-11.96,0-21.65-9.69-21.65-21.65s9.69-21.65,21.65-21.65,21.65,9.69,21.65,21.65-9.69,21.65-21.65,21.65Z"/>
  </g>
  <g>
    <g>
      <path class="cls-3" d="M1977.55,1194.14v-47.3c0-18.33-7.2-26.94-21.61-26.94s-22.87,10.5-22.87,26.78v47.46h-16.29v-86.78h15.19v9.24h.31c6.42-8.3,15.35-11.59,25.37-11.59,20.83,0,36.18,13.16,36.18,37.12v52h-16.29Z"/>
      <path class="cls-3" d="M2014.66,1194.14v-115.91h16.29v115.91h-16.29Z"/>
      <path class="cls-3" d="M2061.81,1223.12l12.69-30.7-34.62-85.05h17.54l25.53,67.35,26.16-67.35h17.54l-47.93,115.75h-16.92Z"/>
      <path class="cls-1" d="M2138.39,1194.14v-115.91h58.58v15.5h-41.66v34.77h41.66v15.51h-41.66v50.12h-16.92Z"/>
      <path class="cls-1" d="M2282.33,1194.14v-13.47h-.31c-6.11,10.34-17.07,15.66-29.45,15.66-25.37,0-46.05-19.11-46.05-44.17,0-27.72,19.89-47.15,45.42-47.15,12.69,0,23.34,4.7,30.07,14.57h.31v-12.22h16.29v86.78h-16.29ZM2282.65,1150.91c0-16.92-12.22-31.01-30.23-31.01-16.29,0-29.6,13.94-29.6,31.01s13.31,30.54,29.6,30.54,30.23-14.1,30.23-30.54Z"/>
      <path class="cls-1" d="M2380.22,1194.14v-47.3c0-18.33-7.21-26.94-21.61-26.94s-22.87,10.5-22.87,26.78v47.46h-16.29v-86.78h15.19v9.24h.31c6.42-8.3,15.35-11.59,25.37-11.59,20.83,0,36.18,13.16,36.18,37.12v52h-16.29Z"/>
      <path class="cls-1" d="M2451.48,1130.39c-.78-6.27-4.38-10.5-11.12-10.5-6.26,0-10.18,4.23-10.18,9.24,0,7.36,7.52,9.55,16.13,12.22,12.22,3.76,23.49,11.12,23.49,27.25s-12.22,27.72-29.13,27.72c-15.66,0-30.7-10.65-30.7-30.7h16.29c.78,10.49,6.11,15.82,14.72,15.82,7.52,0,12.53-4.86,12.53-11.9,0-5.95-4.54-9.87-14.72-13.16-21.3-6.73-24.9-15.97-24.9-25.84,0-15.35,13-25.53,27.25-25.53s26.16,10.02,26.63,25.38h-16.29Z"/>
      <path class="cls-3" d="M2603.57,1194.14l-12.84-34.15h-41.66l-12.84,34.15h-17.86l44.01-115.91h15.19l44.01,115.91h-18.01ZM2570.2,1100.16h-.31l-14.88,44.33h29.92l-14.72-44.33Z"/>
      <path class="cls-3" d="M2633.63,1194.14v-115.91h33.68c24.9,0,40.72,12.37,40.72,35.08s-15.51,35.09-40.57,35.09h-16.92v45.74h-16.92ZM2667.31,1132.9c14.88,0,23.81-7.05,23.81-19.58s-9.24-19.58-23.96-19.58h-16.6v39.16h16.76Z"/>
      <path class="cls-3" d="M2722.75,1194.14v-115.91h16.92v115.91h-16.92Z"/>
      <path class="cls-1" d="M1846.16,1194.14c-30.94,0-57.2-26.56-57.2-56.74,0-34.26,26.26-59.16,57.65-59.16,33.2,0,58.56,26.11,58.56,57.2,0,33.8-26.11,58.7-59.01,58.7ZM1888.87,1136.49c0-23.09-17.5-43.31-41.05-43.31-30.19,0-42.56,25.95-42.56,42.56,0,22.49,16.3,43.47,41.8,43.47s41.8-22.34,41.8-42.71Z"/>
    </g>
    <g>
      <path class="cls-2" d="M2026.63,1306.69c-2.52,0-4.95-.26-7.29-.78s-4.41-1.35-6.21-2.49c-1.8-1.15-3.22-2.61-4.25-4.39-1.04-1.78-1.55-3.9-1.55-6.38,0-.27.01-.53.03-.77.02-.25.03-.46.03-.64h7.56c0,.14-.01.34-.03.61-.02.27-.03.49-.03.68,0,1.67.49,3.08,1.48,4.25.99,1.17,2.37,2.05,4.15,2.63,1.78.59,3.81.88,6.11.88,1.26,0,2.47-.08,3.64-.23,1.17-.16,2.24-.41,3.21-.74.97-.34,1.81-.76,2.53-1.28.72-.52,1.28-1.13,1.69-1.86s.61-1.55.61-2.5c0-1.44-.42-2.63-1.25-3.57-.83-.95-1.96-1.73-3.37-2.36-1.42-.63-3.01-1.19-4.79-1.69-1.78-.49-3.61-.99-5.5-1.48-1.89-.49-3.72-1.08-5.5-1.75-1.78-.68-3.37-1.5-4.79-2.46-1.42-.97-2.54-2.18-3.37-3.65-.83-1.46-1.25-3.25-1.25-5.36s.43-3.82,1.28-5.4c.85-1.57,2.09-2.89,3.71-3.95,1.62-1.05,3.55-1.86,5.8-2.39,2.25-.54,4.79-.81,7.62-.81,2.43,0,4.72.26,6.88.77,2.16.52,4.05,1.32,5.67,2.4,1.62,1.08,2.89,2.45,3.81,4.11.92,1.66,1.38,3.64,1.38,5.94v.81h-7.49v-.88c0-1.44-.43-2.65-1.28-3.64s-2.05-1.76-3.58-2.29c-1.53-.54-3.31-.81-5.33-.81-2.38,0-4.38.24-6,.71s-2.85,1.13-3.68,1.96c-.83.83-1.25,1.83-1.25,3,0,1.31.43,2.37,1.28,3.2.85.83,1.99,1.54,3.41,2.13,1.42.59,3.01,1.11,4.79,1.58,1.78.47,3.6.97,5.47,1.48,1.87.52,3.69,1.11,5.46,1.79,1.78.68,3.37,1.51,4.79,2.5,1.42.99,2.55,2.22,3.41,3.68.85,1.46,1.28,3.25,1.28,5.37,0,3.33-.83,6.04-2.5,8.13-1.66,2.09-3.95,3.61-6.85,4.55-2.9.94-6.22,1.42-9.95,1.42Z"/>
      <path class="cls-2" d="M2100.84,1306.69c-4.77,0-8.89-.88-12.38-2.63-3.49-1.75-6.16-4.41-8.03-7.96-1.87-3.56-2.8-8.01-2.8-13.36s.93-9.86,2.8-13.39c1.87-3.53,4.54-6.17,8.03-7.93,3.49-1.75,7.61-2.63,12.38-2.63s9.02.88,12.48,2.63c3.46,1.75,6.13,4.4,7.99,7.93,1.87,3.53,2.8,7.99,2.8,13.39s-.93,9.8-2.8,13.36c-1.87,3.55-4.53,6.21-7.99,7.96-3.46,1.76-7.62,2.63-12.48,2.63ZM2100.84,1300.28c2.47,0,4.67-.34,6.58-1.01s3.53-1.71,4.86-3.1c1.33-1.39,2.34-3.15,3.04-5.26s1.05-4.57,1.05-7.36v-1.48c0-2.88-.35-5.37-1.05-7.49-.7-2.11-1.71-3.87-3.04-5.26-1.33-1.39-2.95-2.43-4.86-3.1s-4.1-1.01-6.58-1.01-4.6.34-6.51,1.01c-1.91.68-3.53,1.71-4.86,3.1-1.33,1.39-2.33,3.15-3,5.26-.67,2.12-1.01,4.61-1.01,7.49v1.48c0,2.79.34,5.24,1.01,7.36s1.68,3.87,3,5.26c1.33,1.39,2.95,2.43,4.86,3.1,1.91.67,4.08,1.01,6.51,1.01Z"/>
      <path class="cls-2" d="M2157.99,1305.88v-46.28h7.56v39.74h23.07v6.54h-30.63Z"/>
      <path class="cls-2" d="M2236.99,1306.69c-3.96,0-7.38-.64-10.25-1.92-2.88-1.28-5.08-3.27-6.61-5.97s-2.29-6.12-2.29-10.26v-28.94h7.56v29.14c0,3.82,1.01,6.7,3.04,8.64,2.03,1.93,4.88,2.9,8.57,2.9s6.65-.97,8.74-2.9,3.14-4.81,3.14-8.64v-29.14h7.55v28.94c0,4.14-.77,7.56-2.33,10.26s-3.78,4.69-6.68,5.97-6.38,1.92-10.42,1.92Z"/>
      <path class="cls-2" d="M2303.65,1305.88v-39.8h-15.32v-6.48h38.32v6.48h-15.45v39.8h-7.56Z"/>
      <path class="cls-2" d="M2358.76,1305.88v-46.28h7.56v46.28h-7.56Z"/>
      <path class="cls-2" d="M2423.39,1306.69c-4.76,0-8.89-.88-12.38-2.63-3.49-1.75-6.16-4.41-8.03-7.96-1.87-3.56-2.8-8.01-2.8-13.36s.93-9.86,2.8-13.39c1.86-3.53,4.54-6.17,8.03-7.93s7.61-2.63,12.38-2.63,9.02.88,12.48,2.63c3.46,1.75,6.13,4.4,7.99,7.93,1.87,3.53,2.8,7.99,2.8,13.39s-.93,9.8-2.8,13.36c-1.87,3.55-4.53,6.21-7.99,7.96-3.46,1.76-7.62,2.63-12.48,2.63ZM2423.39,1300.28c2.47,0,4.67-.34,6.58-1.01s3.53-1.71,4.86-3.1,2.34-3.15,3.04-5.26,1.05-4.57,1.05-7.36v-1.48c0-2.88-.35-5.37-1.05-7.49-.7-2.11-1.71-3.87-3.04-5.26s-2.94-2.43-4.86-3.1-4.1-1.01-6.58-1.01-4.6.34-6.51,1.01c-1.91.68-3.53,1.71-4.86,3.1s-2.33,3.15-3,5.26c-.68,2.12-1.01,4.61-1.01,7.49v1.48c0,2.79.34,5.24,1.01,7.36.67,2.11,1.67,3.87,3,5.26s2.95,2.43,4.86,3.1c1.91.67,4.08,1.01,6.51,1.01Z"/>
      <path class="cls-2" d="M2480.54,1305.88v-46.28h7.28l21.12,29.01c.27.27.57.65.91,1.14.34.5.66.99.98,1.48s.54.9.68,1.21h.34v-32.85h7.29v46.28h-7.02l-21.39-29.35c-.36-.54-.81-1.22-1.35-2.06-.54-.83-.95-1.47-1.22-1.92h-.34v33.33h-7.28Z"/>
    </g>
  </g>
</svg>